<?xml version="1.0" standalone="no"?>
<!DOCTYPE svg PUBLIC "-//W3C//DTD SVG 20010904//EN"
 "http://www.w3.org/TR/2001/REC-SVG-20010904/DTD/svg10.dtd">
<svg version="1.0" xmlns="http://www.w3.org/2000/svg"
 width="6912.000000pt" height="3456.000000pt" viewBox="0 0 6912.000000 3456.000000"
 preserveAspectRatio="xMidYMid meet">

<g transform="translate(0.000000,3456.000000) scale(0.100000,-0.100000)"
fill="#000000" stroke="none">
<path d="M0 17280 l0 -17280 34560 0 34560 0 0 17280 0 17280 -34560 0 -34560
0 0 -17280z m20632 4073 c3 -21 4 -1847 4 -4058 l-1 -4020 -7347 -2 -7348 -2
0 4059 0 4060 7344 0 7344 0 4 -37z m4201 -2758 c192 -50 347 -208 392 -397
12 -54 15 -228 15 -1160 l0 -1098 -265 0 -265 0 0 535 0 535 -800 0 -800 0 0
-535 0 -535 -267 2 -267 3 0 1105 c1 1024 2 1109 18 1165 57 191 196 328 387
379 82 22 1768 23 1852 1z m1207 -1050 l0 -1065 1065 0 1065 0 0 -270 0 -271
-1112 3 c-1220 4 -1130 -1 -1263 64 -79 38 -183 141 -223 219 -66 131 -62 56
-62 1277 l0 1108 265 0 265 0 0 -1065z m2930 0 l0 -1065 1068 -2 1067 -3 0
-265 0 -265 -1110 0 c-1062 0 -1112 1 -1165 19 -152 52 -263 141 -327 262 -65
122 -63 77 -63 1287 l0 1097 265 0 265 0 0 -1065z m4400 0 l0 -1065 265 0 265
0 0 1065 0 1065 270 0 270 0 0 -1065 0 -1065 265 0 265 0 0 1065 0 1065 265 0
265 0 0 -1101 c0 -972 -2 -1108 -16 -1163 -46 -180 -178 -315 -374 -382 -52
-18 -98 -19 -945 -19 l-890 0 -65 23 c-171 61 -289 178 -348 346 l-26 71 -1
1105 c-1 608 0 1108 2 1113 2 4 123 7 269 7 l264 0 0 -1065z m4654 1050 c101
-26 166 -65 247 -145 82 -81 127 -160 148 -258 8 -37 11 -316 11 -926 0 -840
-1 -876 -20 -937 -52 -169 -166 -289 -340 -355 l-75 -29 -895 0 -895 0 -71 26
c-175 64 -295 192 -348 368 -14 48 -16 155 -16 941 0 780 2 893 16 941 51 175
205 325 384 373 83 22 1768 23 1854 1z m2981 -13 c171 -65 304 -215 346 -392
10 -40 13 -146 13 -390 0 -316 -1 -339 -22 -405 -12 -38 -34 -91 -49 -118 -43
-72 -146 -171 -217 -206 -115 -56 -151 -61 -481 -61 l-300 0 265 -265 265
-265 270 -2 270 -3 0 -265 0 -265 -345 0 c-313 0 -350 2 -395 19 -44 16 -114
82 -565 532 l-515 514 -158 0 -157 0 0 -535 0 -535 -265 0 -265 0 0 1335 0
1335 1123 -2 1122 -3 60 -23z m1155 -1037 l0 -1065 1070 0 1070 0 -2 -267 -3
-268 -1110 0 c-1062 0 -1112 1 -1165 19 -153 52 -266 145 -327 267 -66 130
-63 72 -63 1281 l0 1098 265 0 265 0 0 -1065z m4642 1054 c206 -42 385 -230
418 -439 14 -92 14 -1697 -1 -1776 -19 -103 -70 -197 -151 -278 -75 -75 -130
-109 -228 -142 -52 -18 -117 -19 -1167 -22 l-1113 -3 0 1336 0 1335 1095 0
c751 0 1111 -3 1147 -11z m4824 -249 c0 -140 -2 -261 -4 -267 -3 -10 -119 -13
-533 -13 l-529 0 -2 -1062 -3 -1063 -265 0 -265 0 -3 1063 -2 1062 -530 0
-530 0 0 270 0 270 1333 -2 1332 -3 1 -255z m2569 232 c167 -63 289 -194 342
-367 16 -53 18 -99 18 -410 0 -316 -2 -355 -19 -405 -66 -194 -203 -326 -391
-375 -47 -12 -121 -15 -357 -15 l-298 0 265 -265 266 -265 267 -2 267 -3 0
-265 0 -265 -345 0 c-313 0 -350 2 -395 19 -44 16 -114 82 -565 532 l-515 514
-158 0 -157 0 0 -535 0 -535 -265 0 -265 0 0 1335 0 1335 1123 -2 1122 -3 60
-23z m2867 17 c146 -30 296 -144 361 -276 65 -132 62 -60 62 -1273 l0 -1105
-267 -3 -268 -2 0 535 0 535 -795 0 -795 0 -2 -532 -3 -533 -267 -3 -268 -2 0
1097 c0 1209 -2 1164 62 1287 40 75 145 181 218 221 124 66 85 64 1042 64 590
1 884 -2 920 -10z m2930 0 c149 -31 300 -147 366 -281 62 -127 62 -117 62
-1048 0 -928 1 -910 -61 -1032 -40 -79 -143 -187 -217 -226 -134 -71 -54 -67
-1282 -67 l-1105 0 -3 1333 -2 1332 1094 0 c756 0 1111 -3 1148 -11z m3358
-259 l0 -270 -1065 0 -1065 0 0 -265 0 -265 1065 0 1065 0 0 -265 0 -265
-1065 0 -1065 0 0 -265 0 -265 1065 0 1065 0 0 -270 0 -271 -1117 3 c-1111 3
-1118 3 -1173 24 -92 35 -134 60 -195 116 -72 65 -128 150 -158 237 -22 66
-22 67 -25 927 -3 953 -4 942 60 1072 63 128 208 243 350 278 41 9 298 12
1156 13 l1102 1 0 -270z"/>
<path d="M6304 21122 c-50 -3 -52 -4 -58 -35 -3 -18 -5 -1718 -5 -3778 l0
-3747 592 -6 c326 -4 3490 -5 7032 -4 l6440 3 0 3785 0 3785 -6975 0 c-3836 0
-6998 -1 -7026 -3z m2761 -1284 c11 -18 28 -48 39 -67 37 -72 61 -66 163 37
38 38 46 42 90 42 49 -1 128 -18 197 -43 27 -10 49 -12 70 -6 72 21 196 3 196
-27 0 -22 23 -26 54 -11 15 8 42 13 60 10 19 -2 58 5 92 16 32 12 62 21 66 21
4 0 15 -17 24 -37 12 -29 14 -53 8 -98 -4 -33 -8 -103 -10 -155 -3 -105 -4
-110 -33 -192 -27 -74 -26 -101 2 -134 18 -21 33 -27 61 -27 20 0 42 5 49 12
12 12 15 236 6 422 -3 62 -1 81 13 96 10 10 24 35 33 56 8 20 27 44 43 53 15
10 43 28 63 41 39 26 80 29 139 11 51 -16 58 -43 26 -104 -19 -35 -22 -52 -16
-75 5 -16 7 -29 5 -29 -2 0 14 -53 37 -117 58 -168 57 -213 -6 -296 -19 -25
-26 -46 -26 -78 0 -38 5 -49 40 -83 49 -47 61 -86 43 -139 -14 -40 -11 -83 7
-101 34 -34 -12 -141 -65 -151 -16 -4 -41 -11 -53 -18 -21 -10 -26 -8 -42 13
l-19 25 -35 -34 c-21 -20 -36 -45 -36 -58 0 -15 -10 -28 -30 -38 -27 -14 -30
-20 -30 -67 0 -28 -5 -68 -11 -89 -10 -33 -9 -43 9 -80 20 -40 20 -45 5 -76
-8 -18 -21 -33 -28 -33 -8 0 -26 -8 -43 -17 -16 -9 -36 -13 -46 -10 -16 7 -16
9 3 41 24 38 26 58 10 88 -11 21 -12 21 -38 -8 -14 -16 -65 -62 -112 -101
-106 -88 -117 -111 -83 -176 12 -26 21 -55 19 -66 -3 -17 24 -64 46 -81 4 -3
13 -21 21 -40 20 -47 100 -120 133 -120 16 0 42 -15 69 -40 59 -54 91 -150 82
-242 -10 -105 -30 -155 -75 -194 -47 -39 -80 -97 -94 -164 -13 -66 -32 -86
-94 -102 -20 -5 -21 -4 -12 14 15 27 3 66 -32 110 -16 20 -29 40 -29 43 0 4
-16 30 -35 59 -36 55 -39 71 -34 226 1 30 0 64 -2 75 -2 11 2 47 10 81 11 52
11 65 -2 90 -8 16 -17 60 -21 98 -9 92 -22 150 -47 198 -34 66 -47 112 -54
185 -4 37 -10 94 -14 125 -4 31 -4 63 0 70 4 8 6 54 4 104 -4 111 -3 104 -16
104 -6 0 -22 9 -36 19 -33 26 -65 14 -118 -45 -48 -54 -103 -72 -157 -50 -67
27 -127 1 -147 -65 -7 -23 -21 -59 -32 -78 -10 -20 -19 -41 -19 -48 0 -6 -6
-15 -12 -19 -7 -4 -10 -4 -6 1 13 14 -45 55 -78 55 -40 0 -51 -23 -58 -120 -4
-41 -8 -84 -10 -95 -5 -29 22 -77 42 -73 9 2 27 21 40 43 l24 40 -5 -56 c-3
-31 -14 -78 -25 -105 -11 -27 -28 -70 -37 -96 -10 -26 -21 -46 -25 -43 -13 8
-22 -76 -26 -264 -4 -173 -6 -187 -28 -225 -13 -23 -27 -59 -30 -80 -8 -49
-19 -63 -59 -72 -45 -9 -54 -19 -73 -77 -9 -29 -21 -58 -27 -64 -16 -21 -124
-16 -161 6 -67 42 -128 31 -177 -30 -33 -43 -33 -73 2 -84 16 -5 19 -12 14
-28 -16 -53 -16 -65 7 -100 19 -30 27 -36 47 -31 31 7 42 -11 29 -47 -7 -22
-20 -31 -49 -39 -29 -8 -39 -16 -39 -30 0 -24 -27 -26 -58 -4 -21 14 -26 14
-70 -2 -26 -10 -54 -27 -63 -38 -13 -16 -23 -18 -62 -12 -58 9 -66 21 -29 40
52 27 57 40 57 161 l0 111 39 63 38 63 -12 76 c-13 72 -16 78 -72 135 -39 41
-58 69 -59 86 0 14 -2 35 -4 46 -2 11 -7 35 -10 52 -4 25 -16 39 -48 57 -24
14 -55 39 -71 55 -25 26 -28 35 -21 67 3 21 15 55 25 75 11 20 22 49 24 65 3
16 14 34 23 41 35 24 39 31 50 84 24 115 34 185 28 201 -8 21 11 58 30 58 8 0
15 -4 15 -9 0 -10 50 -61 59 -61 4 0 28 20 55 44 l48 44 -7 55 -7 55 33 16
c19 9 43 17 54 19 11 2 27 6 35 9 8 3 28 9 44 14 20 6 36 22 51 52 29 58 57
76 105 68 44 -7 50 1 50 67 0 56 11 71 44 63 14 -3 37 -9 51 -12 20 -5 26 -1
38 27 12 28 12 39 2 59 -14 28 -31 89 -38 136 -9 57 -59 153 -98 189 -64 58
-136 46 -152 -26 -14 -56 -50 -121 -98 -173 -86 -94 -125 -88 -89 16 21 58 29
155 19 213 -3 13 3 23 17 29 24 11 77 140 80 196 2 40 66 184 97 218 11 12 16
22 11 22 -14 0 -10 121 5 158 8 18 30 41 55 56 22 13 55 36 71 50 17 14 36 26
43 26 15 0 15 2 2 34 -15 41 9 56 93 56 70 0 73 -1 92 -32z m9834 8 c26 -24
27 -42 1 -56 -16 -8 -31 -5 -72 16 -64 33 -158 37 -228 10 -25 -9 -50 -18 -55
-19 -6 -1 -21 -10 -35 -20 -13 -9 -30 -17 -36 -17 -6 0 -23 -9 -37 -21 -15
-11 -35 -22 -46 -24 -11 -2 -35 -11 -53 -19 -18 -8 -54 -15 -81 -15 -44 1 -50
4 -85 47 -20 26 -40 49 -43 52 -3 3 -14 20 -24 38 -11 17 -23 32 -28 32 -4 0
-6 3 -3 8 2 4 184 7 404 7 379 0 401 -1 421 -19z m-2634 -32 c92 -19 174 -20
295 -4 107 15 128 14 222 -10 43 -11 105 -20 138 -20 33 0 60 -4 60 -9 0 -6
-9 -25 -19 -43 -10 -18 -22 -53 -25 -78 -10 -66 -19 -77 -50 -60 -23 12 -30
10 -72 -11 -49 -26 -81 -74 -80 -119 1 -19 7 -25 24 -26 12 -1 25 3 28 7 9 15
44 10 44 -5 0 -14 -86 -96 -100 -96 -15 0 -28 -56 -18 -73 5 -9 6 -17 2 -17
-3 0 -1 -6 6 -14 17 -22 47 -128 43 -156 -2 -14 -5 -37 -7 -52 -2 -15 -20 -54
-40 -87 -36 -59 -87 -164 -92 -189 -1 -8 -9 -21 -16 -30 -8 -10 -24 -37 -36
-62 -40 -81 -58 -94 -140 -99 -80 -5 -123 50 -116 146 3 37 0 56 -11 67 -17
16 -66 121 -63 134 4 18 -24 62 -62 98 -23 21 -54 64 -69 94 -42 84 -68 123
-97 145 -14 11 -56 48 -93 82 -36 34 -101 80 -144 103 -62 34 -77 46 -75 62 2
16 12 21 39 23 20 1 49 12 64 24 17 13 40 21 59 20 78 -5 104 42 39 70 -20 9
-38 28 -49 53 -27 61 -43 64 -104 18 -58 -43 -75 -48 -84 -25 -14 37 19 77 99
119 41 21 63 26 120 25 38 0 91 -4 116 -8 34 -5 61 -3 100 9 29 9 60 16 69 14
8 -2 51 -11 95 -20z m1225 -31 c0 -10 -17 -29 -37 -42 -35 -23 -37 -23 -50 -5
-13 17 -10 21 34 41 26 12 49 22 51 22 1 1 2 -7 2 -16z m465 -33 c12 -23 11
-31 -8 -68 -12 -24 -28 -42 -38 -42 -20 0 -102 86 -97 102 4 12 79 35 111 34
10 0 25 -12 32 -26z m-219 -21 c20 -39 21 -162 1 -192 -8 -12 -39 -36 -68 -54
-51 -31 -97 -40 -217 -43 -7 0 -20 -9 -29 -20 -10 -11 -25 -20 -35 -20 -10 0
-18 -4 -18 -9 0 -4 -22 -18 -50 -29 -27 -12 -50 -25 -50 -29 1 -20 20 -35 51
-39 46 -7 67 -28 49 -48 -19 -24 -42 -19 -74 15 -28 29 -30 30 -47 12 -22 -22
-39 -101 -28 -131 5 -12 17 -22 27 -22 31 0 86 -27 99 -48 19 -32 -4 -52 -67
-57 -52 -5 -58 -9 -112 -67 l-57 -61 -61 -1 c-33 -1 -60 0 -60 1 0 1 11 14 26
28 14 14 22 30 19 35 -10 15 -46 12 -67 -6 -28 -26 -34 6 -9 60 18 43 19 47 3
65 -11 13 -35 23 -67 27 -52 7 -69 19 -58 44 3 8 8 27 11 42 2 15 12 30 21 33
10 3 40 20 67 38 27 17 72 43 99 57 49 26 50 27 47 68 -2 39 2 47 48 93 28 28
58 49 68 48 38 -5 52 11 50 58 -2 66 11 72 142 68 96 -4 112 -2 134 16 14 11
28 28 31 39 8 27 23 25 47 -5 20 -26 67 -35 69 -12 3 51 23 92 40 81 5 -3 16
-19 25 -35z m1081 -16 c7 -8 10 -33 8 -55 -3 -22 2 -56 10 -75 21 -51 19 -77
-11 -106 -25 -25 -27 -25 -72 -12 -45 14 -72 36 -72 60 0 6 -25 37 -55 70 -30
33 -55 63 -55 67 0 3 14 18 30 32 27 22 45 28 120 40 34 5 86 -6 97 -21z
m-707 -8 c6 -8 9 -18 6 -24 -3 -5 2 -19 13 -32 18 -23 18 -23 -31 -71 -53 -52
-71 -53 -88 -5 -9 27 -7 36 11 60 11 16 22 35 23 42 3 19 26 45 41 45 7 0 18
-7 25 -15z m409 -115 c73 -26 73 -27 76 -128 l1 -63 -68 6 c-111 11 -127 -25
-30 -66 50 -22 48 -33 -12 -60 -46 -21 -99 -24 -166 -8 -25 6 -65 10 -90 10
-64 0 -78 6 -85 39 -8 36 15 79 56 102 16 10 34 28 40 41 6 13 25 32 42 42 18
10 39 25 47 32 13 13 116 69 130 72 3 1 30 -8 59 -19z m-559 -120 c0 -21 -10
-37 -36 -58 -20 -17 -45 -43 -54 -58 -16 -24 -17 -31 -4 -73 16 -53 44 -81 85
-81 18 0 32 -7 39 -20 12 -22 40 -26 58 -8 13 13 29 17 87 23 22 2 63 7 91 11
48 6 51 5 77 -27 55 -71 57 -72 101 -66 58 8 131 43 149 71 11 16 30 27 59 32
49 9 46 8 73 18 97 36 98 36 125 22 33 -16 47 -7 75 49 22 43 39 48 41 12 2
-47 3 -48 34 -43 56 8 72 -42 48 -156 -10 -49 -9 -65 5 -111 22 -69 21 -83 -3
-114 -24 -31 -27 -110 -5 -139 24 -32 18 -62 -16 -80 l-32 -16 7 -82 c4 -49 3
-94 -3 -109 -9 -24 -13 -26 -38 -16 -38 14 -59 35 -101 98 -40 61 -106 113
-136 109 -27 -4 -47 -45 -36 -73 32 -85 14 -115 -54 -92 -29 10 -67 14 -108
11 -35 -2 -102 -6 -149 -8 -47 -3 -113 -12 -146 -20 -77 -20 -98 -20 -128 0
-24 15 -100 22 -113 9 -3 -3 -18 6 -33 21 -14 14 -33 26 -41 28 -8 1 -27 13
-42 27 -28 26 -28 26 -10 60 9 19 34 57 55 84 37 49 38 53 28 91 -22 81 -55
122 -123 153 -35 16 -66 33 -69 38 -4 6 12 17 34 26 36 14 39 18 28 35 -8 12
-28 22 -53 25 -23 4 -67 20 -98 37 -32 17 -58 29 -58 25 0 -3 -9 -1 -19 5 -12
6 -17 17 -14 29 3 10 0 28 -6 38 -7 14 -6 27 4 47 16 30 15 27 15 61 0 16 6
25 15 25 16 0 19 -6 29 -51 8 -37 58 -89 82 -84 10 2 22 4 26 4 4 1 17 19 28
40 11 22 32 46 47 53 31 15 101 113 103 143 1 27 21 52 45 57 29 6 35 1 35
-32z m44 -156 c22 -9 10 -24 -20 -24 -25 0 -33 15 -11 23 6 3 13 6 14 6 1 1 8
-2 17 -5z m-2122 -77 c31 -24 142 -230 151 -282 19 -115 19 -132 2 -146 -9 -8
-28 -25 -43 -39 -15 -14 -49 -42 -77 -61 -127 -88 -184 -106 -223 -69 -25 23
-25 26 -1 107 12 39 11 43 -16 78 -17 24 -29 53 -31 79 -2 22 -6 52 -8 65 -3
13 1 39 10 59 13 33 103 152 149 197 24 24 63 29 87 12z m1731 -261 c13 -28
13 -37 3 -52 -7 -9 -18 -14 -24 -10 -7 4 -12 1 -12 -7 0 -24 -27 -27 -47 -5
-10 11 -28 24 -40 29 -38 14 -27 38 28 64 28 13 57 21 64 19 6 -3 19 -20 28
-38z m-287 -183 c4 -15 7 -70 7 -123 1 -71 -3 -101 -16 -120 -12 -19 -16 -49
-15 -120 0 -52 -3 -166 -7 -253 l-8 -157 -31 5 c-17 2 -49 7 -71 10 -22 3 -65
21 -97 40 -31 19 -60 35 -66 35 -5 0 -23 15 -40 34 -45 51 -90 69 -148 59
-107 -19 -163 25 -161 126 2 52 4 55 42 78 60 34 58 33 105 103 24 36 50 71
58 79 8 8 19 27 24 43 11 31 31 39 26 11 -7 -44 37 -56 95 -27 49 25 66 44 77
85 15 56 48 87 101 94 75 10 78 11 85 18 15 15 34 6 40 -20z m-1196 -220 c22
-44 33 -55 85 -80 l60 -28 -154 -3 c-85 -1 -155 -1 -157 1 -6 6 37 109 59 140
15 22 26 27 51 25 26 -3 35 -11 56 -55z m-5682 -263 c18 -25 46 -60 62 -78 56
-65 45 -133 -27 -182 -21 -14 -45 -33 -55 -42 -10 -10 -24 -15 -33 -12 -22 9
-37 72 -25 113 3 14 1 45 -6 70 -10 40 -9 50 9 84 11 22 17 49 15 68 -7 43 18
35 60 -21z m-1218 -110 l-19 -55 -1 44 c0 28 6 51 17 63 25 28 26 11 3 -52z
m1188 -310 c87 -56 123 -74 152 -76 41 -2 70 -14 70 -29 0 -18 51 -45 84 -45
23 0 56 -23 56 -39 0 -4 -7 -16 -15 -27 -25 -33 -17 -49 39 -76 58 -29 75 -57
70 -113 -2 -16 -6 -79 -9 -140 -3 -60 -8 -119 -10 -130 -2 -11 -34 -40 -71
-65 -62 -42 -94 -80 -94 -113 0 -26 -35 -58 -70 -66 -27 -5 -42 -19 -75 -66
-30 -45 -48 -61 -71 -66 -18 -3 -53 -20 -78 -37 -57 -39 -90 -40 -152 -7 -81
43 -89 57 -56 100 13 17 20 43 21 87 1 34 5 65 10 68 4 3 27 21 50 40 23 19
56 40 74 46 30 11 32 13 29 57 -3 49 18 102 64 164 13 17 24 44 24 60 0 15 7
41 15 56 13 25 13 32 0 57 -20 39 -19 69 5 130 11 28 20 54 20 59 0 5 -19 11
-41 14 -47 6 -54 14 -63 68 -3 22 -10 39 -15 39 -5 0 -14 12 -19 28 -5 15 -13
35 -17 45 -11 26 6 21 73 -23z m-2315 -736 c5 -16 22 -56 39 -89 26 -50 31
-71 33 -140 1 -44 3 -84 4 -90 15 -50 -21 -95 -76 -95 -21 0 -52 -8 -68 -18
-47 -29 -147 -64 -156 -55 -5 5 18 98 50 208 32 110 66 227 75 260 26 94 22
89 58 68 19 -11 36 -31 41 -49z m2690 -299 c9 -4 28 -4 42 -1 19 5 25 2 26
-11 0 -10 2 -27 4 -38 2 -11 6 -51 9 -90 4 -73 17 -119 48 -171 25 -42 47
-150 43 -210 -2 -27 -7 -101 -11 -164 -7 -118 -14 -140 -43 -140 -21 0 -41 21
-116 128 -64 90 -121 147 -165 166 -34 14 -145 13 -182 -2 -19 -8 -37 -31 -60
-77 -22 -45 -36 -65 -47 -63 -9 2 -15 12 -13 23 2 11 5 53 7 93 3 47 10 79 20
88 8 9 15 20 15 25 0 5 7 9 15 9 18 0 33 36 41 94 7 58 43 124 75 138 15 7 26
15 23 19 -2 3 16 17 41 30 24 13 42 25 40 27 -2 2 6 14 18 26 12 12 31 39 42
59 26 48 75 65 128 42z m-2630 -284 c19 -19 -2 -24 -43 -11 -27 9 -36 16 -28
21 16 10 57 4 71 -10z m4642 -43 c6 0 21 3 33 6 19 4 21 2 13 -8 -6 -7 -9 -16
-6 -19 3 -4 2 -5 -2 -2 -3 3 -17 -2 -30 -10 -13 -9 -23 -13 -23 -9 0 4 -7 1
-15 -6 -8 -7 -15 -9 -15 -5 0 4 -7 2 -15 -5 -8 -7 -15 -9 -15 -5 0 4 -7 2 -15
-5 -8 -7 -15 -9 -15 -4 0 5 -5 2 -10 -6 -7 -12 -9 -10 -7 7 0 12 4 20 7 18 4
-2 7 2 7 9 0 15 -14 15 -36 2 -9 -6 -12 -5 -8 1 3 5 0 10 -8 10 -8 0 -11 -5
-8 -11 4 -6 -2 -4 -12 4 -17 13 -18 13 -10 0 6 -12 5 -13 -5 -3 -11 10 -17 10
-29 0 -12 -10 -13 -9 -6 3 4 8 5 12 0 8 -4 -4 -15 -2 -23 5 -13 10 -14 9 -7
-2 5 -10 4 -12 -3 -7 -17 11 -15 29 3 22 8 -3 15 0 15 7 0 8 4 6 10 -3 9 -13
10 -13 10 0 0 9 3 11 8 5 4 -6 16 -11 27 -11 11 0 23 5 27 11 5 6 8 4 8 -5 0
-13 1 -13 10 0 9 13 10 13 10 0 0 -13 1 -13 10 0 9 13 10 13 10 0 0 -13 1 -13
10 0 9 13 10 13 10 0 0 -13 1 -13 10 0 9 13 10 13 10 0 1 -12 2 -12 10 2 7 11
18 15 33 12 12 -3 27 -6 32 -6z m-255 -43 c5 3 12 1 15 -5 5 -8 11 -8 20 0 9
8 15 8 20 0 3 -6 11 -8 16 -5 5 4 9 -4 10 -17 1 -23 1 -23 9 2 7 22 8 23 9 4
1 -12 -6 -27 -14 -34 -8 -7 -15 -9 -15 -5 0 5 -9 0 -20 -10 -11 -10 -20 -14
-20 -10 0 4 -8 1 -17 -7 -10 -9 -26 -14 -36 -13 -9 2 -22 -5 -28 -16 -5 -11
-14 -17 -20 -14 -5 4 -9 0 -9 -7 0 -9 -3 -9 -10 2 -9 13 -10 13 -10 0 0 -13
-1 -13 -10 0 -8 12 -10 10 -10 -11 0 -26 -41 -75 -53 -62 -4 3 -7 0 -7 -8 0
-12 -2 -11 -11 1 -9 12 -10 11 -6 -6 4 -18 0 -21 -24 -19 -16 1 -34 -4 -40
-11 -13 -16 -29 -9 -29 13 0 13 2 14 18 2 15 -13 16 -12 4 3 -9 11 -10 18 -2
23 5 3 11 -2 11 -12 1 -16 2 -15 7 2 l5 20 8 -20 8 -20 1 20 1 20 10 -20 c9
-19 9 -18 5 3 -3 14 0 20 6 15 7 -3 8 -1 4 6 -4 6 -4 11 1 10 4 -1 11 0 16 1
4 1 13 3 19 4 7 0 16 15 19 31 l7 30 2 -30 c2 -32 4 -28 15 19 5 23 8 27 16
15 7 -12 9 -12 9 1 0 13 1 13 10 0 9 -13 10 -13 10 0 0 13 2 13 11 0 9 -13 10
-12 5 3 -4 12 -2 16 6 11 7 -5 8 -3 3 6 -6 9 -4 11 5 5 8 -5 11 -4 6 3 -3 6
-2 13 4 17 5 3 11 -2 11 -12 1 -17 2 -17 6 0 3 13 8 15 17 8 9 -8 12 0 13 32
l1 42 -8 -35 c-6 -30 -8 -31 -10 -10 -1 14 -2 28 -1 32 0 4 -8 5 -19 3 -12 -2
-18 -1 -16 4 3 4 -6 7 -19 7 -14 0 -21 -4 -17 -10 3 -6 -3 -4 -13 4 -17 13
-18 13 -10 0 6 -12 6 -13 -6 -2 -19 17 2 30 42 27 16 -1 29 2 29 8 0 6 7 1 16
-11 8 -12 19 -20 24 -17z m-160 5 c0 13 1 13 10 0 8 -13 10 -13 10 0 0 10 5 8
15 -7 14 -20 37 -25 51 -10 4 4 14 1 22 -6 8 -6 18 -11 21 -9 3 1 7 -8 8 -20
2 -22 1 -21 -6 2 -8 22 -9 22 -10 4 -1 -11 -12 -31 -25 -43 l-24 -23 0 37 c0
20 -3 39 -6 42 -3 4 -6 -5 -6 -18 0 -18 -2 -21 -9 -9 -6 8 -8 17 -6 20 2 4 -2
7 -10 7 -8 0 -11 -5 -8 -11 4 -6 -2 -3 -13 6 -16 14 -23 15 -34 5 -7 -7 -10
-7 -7 -1 5 8 -3 11 -23 9 -17 -1 -30 1 -30 6 0 9 10 12 43 12 9 0 17 5 17 11
0 6 5 4 10 -4 9 -13 10 -13 10 0z m285 -21 c-6 -29 -15 -37 -15 -12 0 17 8 33
16 33 2 0 1 -10 -1 -21z m-375 -32 c-10 -9 -12 -8 -7 4 3 9 0 16 -7 16 -9 0
-12 -13 -11 -38 1 -21 -2 -36 -6 -33 -5 3 -9 11 -9 19 0 8 -4 16 -9 19 -5 4
-7 -4 -3 -16 3 -14 2 -19 -7 -14 -6 4 -9 11 -6 16 3 5 0 12 -6 16 -8 4 -9 3
-5 -5 5 -7 2 -10 -6 -9 -7 2 -12 -4 -10 -14 3 -17 -21 -19 -35 -3 -4 4 -2 5 5
1 7 -4 12 -1 12 7 0 14 17 26 32 23 3 0 17 9 30 22 14 12 28 19 31 15 4 -3 7
0 7 8 1 10 4 8 11 -4 8 -14 8 -22 -1 -30z m-1003 13 c-3 -11 0 -20 6 -20 7 0
5 -5 -3 -10 -15 -9 -13 -11 13 -14 6 0 12 -8 12 -16 0 -8 5 -18 10 -22 6 -5 5
-8 -4 -8 -8 0 -11 -7 -8 -20 3 -11 1 -18 -4 -14 -5 3 -9 11 -9 18 0 8 -8 20
-17 27 -14 12 -16 12 -8 0 5 -9 4 -12 -2 -8 -7 4 -10 -4 -8 -22 2 -23 -1 -28
-19 -27 -11 1 -21 -5 -22 -11 -3 -26 -6 -28 -14 -8 -8 18 -9 17 -7 -6 2 -36
-24 -94 -34 -77 -5 7 -9 9 -9 3 0 -5 5 -17 10 -25 8 -12 10 -12 10 -1 0 20 10
8 15 -18 2 -12 1 -19 -4 -17 -4 3 -7 -6 -7 -19 0 -13 3 -22 6 -20 4 2 6 -59 5
-136 0 -77 3 -143 7 -145 5 -3 5 -10 2 -16 -4 -5 -8 -29 -10 -51 -2 -31 0 -37
6 -22 l9 20 2 -20 c1 -11 1 -30 2 -42 0 -12 3 -20 8 -18 4 3 4 -8 -1 -25 -5
-17 -5 -28 0 -25 14 9 23 -15 11 -29 -6 -7 -9 -15 -7 -17 9 -9 14 -69 6 -69
-5 0 -9 8 -8 18 0 9 -3 33 -7 52 -4 19 -7 47 -7 62 0 15 -4 25 -9 23 -4 -3 -6
6 -3 21 3 14 1 23 -4 20 -13 -8 -17 85 -13 309 1 21 -7 130 -9 135 -1 3 -2 8
-1 13 0 4 -3 7 -8 7 -14 0 -6 40 17 91 21 46 38 67 57 68 6 1 10 9 10 19 1 27
15 62 26 62 5 0 8 3 8 8 -3 17 1 42 7 42 4 0 4 -9 1 -20z m1059 -3 c4 -4 13
-2 19 3 19 16 43 -16 25 -33 -10 -10 -12 -8 -6 8 l6 20 -16 -20 -17 -20 7 20
c6 19 5 19 -8 2 -14 -18 -15 -18 -19 0 -2 10 -3 9 -2 -5 1 -12 -2 -25 -6 -28
-8 -5 -14 18 -10 39 1 5 -3 6 -8 3 -5 -3 -7 -16 -3 -28 3 -13 1 -19 -6 -15
-11 7 -10 20 2 49 7 16 29 19 42 5z m94 -32 c4 3 6 -4 3 -15 -3 -11 -9 -17
-14 -15 -4 3 -12 -2 -17 -11 -5 -9 -13 -14 -18 -12 -5 1 -12 -10 -15 -27 -4
-16 -7 -26 -8 -21 0 5 -8 3 -16 -4 -8 -7 -15 -9 -15 -5 0 4 -7 1 -17 -6 -9 -8
-24 -14 -33 -14 -23 0 -50 -24 -51 -44 0 -12 -2 -11 -8 4 -10 23 -4 38 10 30
5 -3 6 0 3 8 -3 8 -1 18 5 22 6 3 11 0 11 -7 0 -9 3 -9 10 2 9 13 10 13 10 0
1 -9 6 -5 15 10 13 23 14 23 16 5 1 -18 2 -18 6 -2 4 15 7 16 21 5 12 -10 14
-10 8 0 -5 8 -3 11 6 10 15 -3 19 60 4 69 -5 4 -6 1 -1 -7 5 -9 4 -11 -3 -6
-8 5 -10 1 -5 -11 5 -14 3 -16 -7 -6 -18 17 4 43 31 38 11 -2 24 4 31 15 11
17 14 17 21 5 4 -9 12 -13 17 -10z m-162 2 c-1 -2 3 -12 11 -21 12 -14 12 -19
1 -29 -10 -10 -11 -9 -5 2 5 10 4 12 -4 7 -6 -4 -9 -11 -6 -16 3 -5 1 -11 -5
-15 -5 -3 -10 1 -10 9 0 8 5 18 10 21 6 3 7 18 4 33 -4 15 -4 24 0 20 4 -3 6
-8 4 -11z m-48 -39 c0 -5 -5 -6 -12 -2 -6 4 -8 3 -4 -4 3 -6 2 -13 -3 -17 -6
-3 -9 7 -8 24 1 22 5 27 15 19 6 -6 12 -15 12 -20z m-815 -22 c0 -18 -7 -41
-14 -50 -7 -9 -10 -16 -6 -16 4 0 2 -7 -5 -15 -7 -8 -16 -13 -20 -10 -4 2 -7
-12 -8 -31 -1 -36 22 -95 36 -92 18 3 62 -23 62 -37 0 -9 -5 -13 -10 -10 -6 4
-8 11 -5 16 4 5 1 9 -5 9 -7 0 -9 -7 -6 -16 3 -8 2 -12 -4 -9 -6 3 -10 14 -11
23 0 14 -2 13 -9 -3 l-9 -20 -1 20 -1 20 -9 -20 c-5 -12 -9 -14 -9 -6 -1 8 -8
23 -17 33 -19 20 -27 155 -10 165 5 4 7 -3 4 -14 -3 -11 0 -20 6 -20 6 0 11
10 11 21 -1 12 -4 21 -7 21 -3 0 -13 7 -24 15 -18 14 -18 14 -4 -4 9 -13 10
-17 2 -12 -7 4 -12 4 -11 -1 4 -20 -2 -24 -18 -12 -10 8 -14 9 -10 2 4 -6 2
-15 -4 -19 -9 -5 -10 0 -7 14 4 12 2 20 -3 16 -5 -3 -9 -12 -9 -21 0 -12 -3
-13 -14 -4 -12 10 -14 9 -11 -6 4 -26 -5 -36 -20 -23 -11 9 -13 7 -9 -14 2
-13 0 -27 -6 -31 -6 -4 -7 1 -4 12 5 14 4 15 -4 4 -11 -15 -6 -36 12 -60 7 -9
7 -12 1 -9 -6 4 -11 -5 -12 -20 l-2 -27 10 24 c5 13 12 21 15 18 3 -3 0 -15
-6 -27 -10 -18 -9 -21 1 -15 9 6 10 4 3 -6 -5 -8 -9 -22 -10 -31 -1 -10 -2
-19 -4 -20 -5 -7 -6 -47 -1 -43 4 2 6 -30 7 -70 0 -41 -3 -72 -6 -70 -4 2 -6
-6 -5 -18 2 -12 8 -21 14 -19 6 1 11 -8 11 -20 0 -17 -3 -19 -9 -10 -5 9 -8 4
-7 -16 1 -17 3 -29 6 -27 3 2 5 -14 6 -36 1 -21 -3 -36 -8 -33 -5 3 -7 12 -4
19 3 10 -13 55 -25 68 -1 1 3 12 9 24 7 12 8 24 4 27 -4 2 -7 68 -7 146 1 78
-2 143 -7 146 -5 3 -5 11 -1 17 10 16 11 29 1 49 -8 17 14 82 32 93 6 4 8 10
5 14 -2 5 5 8 18 7 16 -1 22 5 23 22 2 37 4 38 17 13 13 -26 34 -29 29 -4 -2
10 2 14 11 10 9 -3 18 1 21 10 4 9 9 13 13 10 3 -4 15 0 27 8 11 8 21 15 21
15 1 0 1 -15 0 -34z m838 5 c-8 -31 14 -33 39 -2 23 27 25 28 36 10 7 -10 12
-24 11 -31 0 -7 -4 -4 -9 7 -8 18 -9 18 -9 2 -1 -10 -5 -16 -10 -12 -6 3 -14
-3 -20 -12 -8 -14 -10 -15 -11 -3 0 13 -2 13 -9 1 -8 -12 -12 -10 -22 12 -11
25 -13 25 -25 9 -7 -9 -14 -13 -14 -9 0 13 34 55 42 51 3 -2 4 -13 1 -23z
m-63 4 c0 -5 10 -23 21 -40 12 -16 19 -22 15 -13 -6 20 10 34 17 15 3 -7 -3
-24 -13 -37 -9 -12 -15 -32 -13 -44 3 -13 1 -17 -4 -10 -4 6 -16 10 -25 8 -23
-3 -34 15 -18 29 10 9 12 8 7 -4 -3 -9 0 -16 8 -16 7 0 11 7 8 14 -3 8 -2 13
3 12 19 -3 25 2 17 14 -4 6 -8 17 -8 22 -1 6 -7 9 -14 7 -8 -2 -11 3 -8 12 3
8 -2 20 -11 28 -13 11 -14 11 -7 -1 5 -10 4 -12 -4 -7 -6 4 -14 0 -17 -8 -3
-9 -10 -13 -15 -10 -5 3 -6 -3 -2 -13 5 -15 4 -16 -8 -5 -12 11 -11 15 3 26
10 7 14 17 10 21 -4 5 -1 5 6 1 6 -4 12 -3 12 3 0 5 9 9 20 8 11 -1 20 -6 20
-12z m716 -44 c0 -25 -8 -59 -19 -79 -11 -21 -21 -62 -23 -92 -2 -30 -5 -62
-7 -70 -5 -25 -59 -100 -68 -95 -4 3 -8 -3 -7 -12 0 -10 -6 -34 -12 -53 -22
-59 -23 -65 -21 -74 1 -4 -2 -13 -7 -20 -5 -6 -8 -25 -6 -43 1 -17 -3 -39 -9
-48 -10 -13 -12 -2 -13 56 -1 61 1 69 12 54 12 -16 13 -16 11 3 0 11 -4 19 -7
17 -5 -3 -5 42 0 55 1 3 6 -8 11 -25 7 -25 8 -24 4 12 -3 25 -1 45 6 49 8 4 9
-1 5 -17 -6 -21 -5 -22 4 -6 9 14 9 22 -1 33 -6 8 -9 17 -5 21 3 3 6 0 6 -8 0
-12 2 -12 9 0 5 8 7 21 4 30 -3 11 0 10 12 -4 12 -14 16 -16 15 -5 -1 8 -2 22
-1 30 1 13 2 13 11 0 8 -11 9 -7 4 15 -6 26 -5 28 8 18 12 -10 15 -10 15 2 0
8 -4 12 -8 10 -4 -3 -5 5 -1 17 5 21 6 21 13 2 6 -14 8 -10 5 13 -2 17 -7 37
-11 43 -4 6 0 19 8 28 8 9 13 25 12 35 -4 23 21 74 28 55 2 -7 3 -5 1 5 -1 9
1 15 4 13 4 -2 7 10 8 27 1 18 -1 26 -3 19 -4 -10 -9 -8 -19 5 -10 13 -13 14
-11 3 2 -8 2 -11 -1 -7 -2 4 -10 0 -18 -10 -10 -13 -13 -14 -11 -3 2 8 2 12 0
8 -2 -4 -12 -4 -21 -1 -10 3 -13 1 -7 -4 6 -4 11 -15 12 -23 2 -12 0 -12 -9 2
-11 15 -13 15 -26 0 -9 -11 -11 -12 -6 -2 7 13 5 13 -9 1 -9 -7 -15 -17 -12
-21 3 -5 1 -11 -5 -15 -5 -3 -10 2 -11 12 0 11 -3 13 -6 5 -3 -7 1 -20 9 -29
7 -9 8 -14 2 -10 -6 3 -11 0 -12 -8 -1 -8 -3 -22 -4 -30 -1 -8 -6 -11 -11 -8
-6 4 -7 1 -2 -7 6 -9 4 -11 -6 -5 -11 7 -12 6 -2 -7 7 -8 10 -18 6 -22 -4 -4
-8 -15 -8 -24 0 -9 -5 -16 -12 -15 -6 1 -10 -8 -8 -22 1 -13 -1 -23 -4 -21 -3
2 -7 -10 -8 -27 -1 -26 0 -28 7 -12 5 11 9 14 9 7 1 -7 -4 -23 -10 -34 -6 -11
-13 -37 -15 -57 -6 -57 -7 -60 -17 -54 -6 4 -7 1 -2 -7 5 -8 4 -11 -2 -7 -6 4
-8 -4 -6 -21 3 -20 2 -23 -6 -12 -5 8 -8 17 -5 21 2 4 0 10 -5 14 -6 3 -8 -6
-5 -22 3 -22 2 -25 -6 -13 -9 12 -10 10 -5 -10 5 -20 4 -22 -5 -10 -9 12 -10
11 -5 -7 3 -13 4 -23 0 -23 -3 0 -10 10 -16 23 l-10 22 5 -23 c3 -14 0 -20 -6
-15 -7 4 -8 1 -3 -7 5 -7 4 -11 -1 -7 -5 3 -9 -5 -9 -18 0 -13 4 -21 9 -17 5
3 7 1 3 -4 -3 -5 4 -25 14 -44 13 -23 17 -27 13 -11 -4 17 -3 21 6 16 6 -4 10
-16 7 -26 -3 -10 0 -17 7 -16 6 1 10 -7 8 -18 -2 -17 -1 -18 9 -5 9 13 10 13
6 -2 -3 -9 3 -24 15 -35 14 -11 18 -13 13 -3 -11 18 -17 50 -10 50 3 0 10 -10
15 -22 7 -19 9 -19 9 -5 1 10 5 16 10 13 8 -5 6 46 -3 71 -3 6 3 17 11 25 14
11 16 11 10 -4 -3 -10 -2 -20 3 -23 5 -3 7 -15 4 -28 -3 -12 -6 -27 -7 -33 -2
-5 -13 -23 -25 -40 l-22 -29 -21 25 c-12 14 -24 24 -28 23 -3 -1 -5 5 -3 13 2
8 -3 13 -10 12 -7 -2 -12 3 -10 10 1 6 -3 12 -9 12 -5 0 -8 4 -5 9 3 5 -1 11
-9 15 -9 3 -12 12 -8 22 4 10 2 15 -3 11 -5 -3 -10 13 -10 38 0 24 4 41 8 39
5 -3 8 2 8 10 0 8 18 36 40 61 22 25 40 52 40 58 0 8 3 8 9 -1 5 -8 8 7 8 40
0 29 3 64 6 78 3 14 9 36 12 50 3 14 7 30 9 37 1 7 5 15 8 19 4 3 4 12 1 20
-3 8 0 14 7 14 6 0 8 5 5 10 -3 6 -3 16 2 23 4 6 9 21 10 31 4 21 33 59 41 52
2 -3 20 4 40 14 19 11 39 17 44 14 4 -3 8 0 8 6 0 7 7 10 15 6 8 -3 15 -1 15
5 0 6 6 9 12 7 8 -3 13 -23 14 -47z m-549 17 c-3 -8 -6 -5 -6 6 -1 11 2 17 5
13 3 -3 4 -12 1 -19z m-181 -7 c-1 -9 5 -15 14 -13 8 2 12 0 8 -4 -4 -4 -3
-12 2 -19 7 -8 5 -12 -5 -12 -8 0 -15 3 -15 7 0 3 -7 15 -16 26 -14 18 -15 18
-4 -3 14 -29 -12 -73 -40 -68 -10 2 -24 -3 -30 -11 -7 -7 -16 -12 -20 -9 -5 3
-12 1 -15 -5 -10 -16 -35 8 -28 26 4 12 8 12 19 -3 12 -17 13 -16 8 4 -4 14 1
28 15 42 12 12 21 23 21 26 0 3 0 10 0 17 0 6 6 3 14 -8 8 -10 13 -30 12 -44
-2 -14 -1 -17 1 -7 2 9 8 15 13 12 5 -3 7 -13 4 -23 -5 -14 -4 -14 4 -2 6 8 8
18 5 24 -3 5 -1 6 5 2 8 -5 10 -1 5 9 -5 13 -7 14 -14 3 -12 -19 -11 -3 2 25
12 27 37 32 35 8z m704 -22 c0 -5 -9 -24 -19 -43 -11 -19 -18 -42 -17 -52 2
-11 -3 -27 -11 -36 -10 -11 -12 -22 -6 -35 7 -13 2 -33 -18 -73 l-27 -54 3 52
c3 56 15 85 15 37 0 -36 5 -30 14 15 4 25 3 31 -4 20 -8 -11 -10 -8 -7 15 3
17 8 29 13 28 5 -1 9 15 9 35 1 22 6 36 12 35 13 -3 11 22 -2 34 -4 4 -5 2 -1
-5 5 -8 3 -11 -5 -10 -7 2 -13 -2 -14 -9 0 -6 -4 -15 -9 -20 -5 -4 -7 1 -4 13
3 12 0 21 -7 21 -7 0 -10 -8 -7 -21 5 -18 3 -19 -10 -9 -12 10 -15 10 -16 0
-1 -19 -7 -41 -13 -52 -15 -25 -18 -46 -7 -39 7 5 8 3 3 -7 -5 -7 -10 -22 -10
-32 -1 -10 -7 -23 -14 -30 -10 -9 -11 -8 -5 8 4 11 3 17 -1 13 -5 -5 -9 -27
-11 -50 -1 -24 -5 -63 -9 -88 -4 -25 -8 -50 -8 -57 0 -7 -4 -10 -8 -7 -4 2 -6
-5 -4 -16 2 -11 0 -18 -5 -15 -5 3 -7 -12 -5 -32 3 -25 1 -31 -4 -19 -7 19 -8
18 -14 -4 -3 -13 -9 -22 -12 -18 -3 3 -1 16 4 29 27 67 32 86 36 125 1 17 8
40 14 51 6 11 8 36 6 54 -3 22 2 40 12 51 9 10 13 21 10 25 -4 3 -2 12 4 20 6
7 8 13 4 13 -4 0 -2 7 5 15 7 8 9 15 6 15 -4 0 -1 10 6 23 7 12 13 25 14 30 1
4 3 10 4 15 1 4 2 11 1 15 -1 5 3 6 8 3 5 -4 13 -2 16 4 5 8 11 7 21 -1 13
-11 18 -6 15 14 -1 5 3 6 8 3 5 -4 12 -3 15 2 7 11 36 11 36 1z m-1544 -82
c-1 -41 3 -67 14 -81 9 -12 21 -34 28 -51 12 -29 12 -29 -4 -10 -11 14 -15 15
-11 4 3 -9 1 -22 -4 -30 -7 -10 -9 -1 -6 28 3 27 1 40 -6 36 -6 -4 -7 -1 -2 8
7 11 5 11 -10 -1 -17 -14 -18 -13 -11 15 4 19 3 25 -3 16 -6 -9 -9 1 -9 30 1
36 2 39 8 19 6 -20 8 -16 6 17 -1 23 -6 46 -10 50 -5 4 -6 2 -2 -4 4 -7 2 -21
-4 -30 -10 -16 -11 -16 -7 3 2 12 -1 21 -8 21 -7 0 -10 -8 -7 -21 5 -19 4 -20
-13 -6 -15 12 -17 12 -10 1 5 -10 4 -12 -3 -7 -8 4 -10 2 -6 -7 3 -8 0 -18 -7
-23 -8 -5 -10 -3 -4 7 5 8 4 10 0 6 -5 -4 -10 -14 -11 -23 -2 -13 0 -13 14 -2
13 11 14 11 7 -1 -5 -8 -4 -12 1 -9 5 4 10 -10 11 -30 1 -24 -1 -32 -7 -23 -5
9 -7 -3 -6 -33 2 -25 0 -49 -5 -51 -6 -4 -5 -60 1 -60 7 0 12 -147 7 -205 -2
-25 -2 -49 0 -53 8 -13 10 -126 3 -122 -4 2 -6 -29 -6 -70 1 -40 4 -71 7 -69
3 2 6 -3 6 -11 0 -8 -5 -11 -10 -8 -6 3 -7 1 -3 -5 3 -6 2 -13 -4 -17 -6 -4
-8 -11 -4 -16 3 -6 -2 -19 -11 -29 -9 -10 -14 -23 -11 -29 4 -5 2 -12 -4 -16
-5 -3 -10 -14 -9 -23 0 -14 2 -13 9 3 5 11 9 17 9 13 1 -5 0 -10 -1 -12 -2 -2
6 -14 17 -27 11 -12 15 -19 8 -15 -8 4 -11 0 -8 -15 2 -12 7 -24 11 -28 4 -3
4 2 1 11 -3 10 -1 20 4 24 7 4 9 -3 7 -16 -1 -13 -11 -24 -20 -26 -11 -1 -15
3 -11 14 5 11 3 13 -8 7 -8 -4 -11 -5 -7 0 4 4 3 14 -3 22 -6 7 -8 13 -4 13 4
0 2 6 -4 14 -10 12 -9 32 3 81 1 6 7 19 12 30 6 11 10 39 9 63 -2 23 1 44 5
47 8 5 3 65 -6 74 -2 2 1 10 7 17 7 9 6 19 -3 33 -9 15 -10 26 -3 39 16 26 13
168 -3 164 -9 -2 -10 3 -4 15 8 16 10 150 2 178 -1 6 -1 13 0 18 1 4 4 16 5
27 1 11 3 21 5 23 9 11 4 56 -8 70 -13 15 -14 22 -4 38 7 11 10 25 6 32 -4 7
-4 9 1 5 10 -10 37 11 30 23 -3 4 3 6 15 4 11 -2 22 0 24 4 3 4 11 8 19 8 11
0 14 -14 13 -60z m440 20 c8 3 20 0 28 -6 7 -6 16 -8 20 -4 4 4 4 -1 0 -11 -5
-13 -4 -17 3 -13 7 5 9 -1 5 -15 -4 -16 -2 -19 9 -13 8 5 11 5 7 0 -5 -5 1
-15 12 -22 11 -8 18 -18 15 -23 -3 -4 0 -10 5 -12 6 -2 12 -10 13 -18 2 -8 6
-21 10 -27 5 -7 6 -17 3 -22 -4 -5 -2 -11 4 -13 6 -2 1 -9 -9 -15 -17 -11 -19
-10 -16 8 2 11 0 17 -5 14 -6 -3 -7 0 -4 8 3 8 0 18 -6 22 -8 5 -7 11 2 23 11
13 11 14 -1 7 -10 -5 -12 -4 -7 4 4 7 2 10 -4 9 -7 -2 -14 5 -15 15 -2 11 -7
22 -11 25 -4 4 -4 -2 -1 -13 7 -19 6 -19 -7 -2 -8 10 -12 28 -10 40 4 21 4 21
-6 2 -9 -17 -9 -15 -5 10 3 17 2 26 -2 20 -11 -13 -33 -17 -33 -6 0 5 8 12 18
14 16 4 16 5 -1 6 -10 0 -22 -10 -29 -24 -8 -19 -14 -22 -20 -13 -5 8 -6 1 -3
-17 4 -23 3 -26 -4 -10 -8 17 -9 15 -8 -13 0 -47 -10 -50 -15 -3 -2 23 1 37 6
34 5 -4 7 1 3 11 -4 11 -3 15 4 11 6 -4 9 1 7 11 -2 11 2 18 10 17 6 -2 12 3
13 10 0 9 2 9 5 0 3 -7 12 -9 20 -6z m1008 -38 c-2 -4 0 -10 5 -14 6 -3 8 6 5
22 -3 21 -2 24 6 13 8 -12 10 -13 10 -1 0 8 2 12 5 9 3 -3 1 -18 -5 -34 -6
-16 -12 -31 -12 -34 0 -3 -5 -16 -10 -30 -6 -14 -12 -45 -14 -70 -3 -25 -5
-53 -6 -62 -1 -9 -7 -16 -13 -15 -5 1 -10 -5 -11 -13 0 -8 -7 -28 -14 -45 -7
-16 -12 -34 -11 -39 1 -5 -1 -16 -5 -25 -4 -9 -8 -38 -9 -64 -1 -28 -8 -55
-17 -64 -12 -11 -14 -23 -8 -43 7 -25 -3 -63 -11 -44 -8 19 -3 99 6 97 6 -1
11 13 12 30 l2 32 -15 -34 c-8 -19 -17 -32 -20 -28 -3 3 2 19 11 37 9 17 14
39 11 47 -3 8 -3 20 1 26 4 7 8 15 9 20 1 4 2 8 4 10 4 5 20 104 24 147 2 14
11 38 20 52 10 15 15 32 12 37 -4 5 -2 12 3 16 6 3 8 12 5 20 -3 8 -2 20 2 27
9 13 10 18 13 41 1 8 4 8 10 -3 6 -8 8 -17 5 -21z m-1508 4 c-5 -15 -4 -15 9
1 15 19 15 19 16 -5 1 -13 1 -29 0 -35 -3 -22 19 -64 31 -62 8 2 11 -8 10 -29
-4 -36 12 -51 27 -26 8 14 10 15 11 3 0 -13 2 -13 9 -1 5 8 7 20 4 27 -3 8 2
11 13 10 10 -2 20 -9 22 -17 3 -11 2 -11 -6 -1 -6 9 -12 6 -20 -13 -7 -16 -17
-23 -24 -19 -7 4 -8 3 -4 -4 4 -7 2 -20 -4 -29 -10 -16 -11 -16 -7 3 6 28 -23
26 -34 -2 -5 -11 -7 2 -4 33 4 57 -1 69 -23 51 -13 -11 -14 -8 -8 22 l6 35
-13 -34 c-7 -18 -12 -46 -11 -62 1 -16 -2 -26 -7 -23 -5 3 -5 -4 0 -18 4 -13
7 -31 5 -41 -1 -9 1 -15 5 -12 4 2 8 -2 8 -10 0 -8 -3 -13 -6 -11 -3 2 -6 -9
-7 -26 -1 -20 2 -25 7 -16 6 8 7 0 4 -22 l-5 -35 10 33 c13 39 25 43 15 5 -4
-16 -7 -41 -7 -58 1 -25 0 -27 -8 -10 -9 22 -11 18 -14 -47 -1 -20 1 -35 6
-32 5 3 6 9 3 14 -3 5 -1 11 5 15 11 7 14 -18 3 -29 -11 -10 -12 -88 -3 -106
5 -9 2 -23 -6 -35 -8 -10 -14 -26 -13 -34 0 -11 3 -10 9 4 5 13 7 1 6 -37 -2
-31 0 -55 4 -53 3 2 7 -13 8 -33 1 -35 1 -36 -10 -12 -6 14 -12 28 -13 33 -2
4 -3 8 -4 10 -7 8 -8 117 -2 121 7 5 6 119 -2 133 -2 4 -2 28 0 53 5 59 0 205
-7 205 -5 0 -7 52 -1 60 3 6 6 21 7 35 0 14 3 32 7 40 7 18 4 67 -5 75 -4 4
-4 13 -1 21 8 20 16 17 9 -3z m354 2 c-7 -8 -16 -12 -21 -9 -5 3 -9 -1 -9 -8
0 -9 -3 -9 -10 2 -9 13 -10 13 -11 0 0 -10 -2 -11 -6 -2 -5 13 -25 17 -20 5 1
-5 -2 -10 -8 -11 -5 -2 -15 -8 -22 -13 -8 -7 -11 -5 -8 8 1 10 8 17 14 16 6
-2 11 1 11 6 0 5 12 11 28 13 76 9 75 9 62 -7z m136 -32 c-5 -28 -5 -28 9 2 8
17 14 23 15 14 0 -8 16 -34 36 -57 19 -23 32 -42 29 -42 -4 0 -2 -7 5 -15 6
-8 9 -19 6 -24 -4 -5 -2 -12 4 -16 6 -4 8 -10 5 -15 -3 -5 -1 -11 4 -14 5 -4
12 -2 16 4 3 5 10 10 14 10 11 0 32 -50 26 -61 -4 -5 -2 -9 4 -9 6 0 7 -7 4
-17 -4 -11 -3 -14 5 -9 8 5 10 1 5 -10 -4 -11 -3 -15 5 -10 6 3 16 -3 22 -14
6 -11 15 -18 21 -15 5 4 12 -1 15 -10 6 -13 8 -14 15 -3 7 10 9 10 9 -2 0 -13
1 -13 10 0 9 13 10 13 10 0 0 -13 1 -13 10 0 7 11 10 11 10 2 0 -7 5 -10 12
-6 6 4 8 3 4 -4 -3 -5 -3 -12 2 -14 4 -1 0 -11 -11 -21 -17 -17 -18 -17 -15 0
2 11 -2 17 -10 15 -8 -1 -11 1 -8 6 2 4 -6 8 -19 8 -13 0 -21 -5 -19 -10 3 -6
-3 -1 -13 10 -18 20 -21 20 -31 5 -10 -13 -12 -13 -10 -1 1 8 -5 28 -12 43
-10 20 -16 24 -22 15 -6 -9 -7 -6 -3 9 3 13 -2 34 -13 52 l-19 31 -12 -22 -12
-23 5 23 c2 12 0 20 -4 17 -5 -3 -7 4 -5 15 3 13 0 18 -7 14 -7 -5 -8 -2 -3 6
5 8 4 11 -2 7 -11 -7 -27 49 -17 64 3 5 3 9 -1 9 -3 0 -10 -10 -15 -22 -9 -21
-10 -19 -7 9 2 18 -1 31 -7 30 -9 -2 -11 3 -15 35 0 6 -7 3 -15 -7 -8 -11 -12
-23 -10 -27 2 -4 0 -9 -6 -13 -5 -3 -10 2 -11 12 0 16 -1 16 -8 -2 -5 -11 -6
-27 -3 -35 4 -11 2 -12 -7 -4 -9 9 -7 23 10 63 25 57 34 65 25 24z m-44 -92
c13 -19 16 -20 22 -6 3 9 3 22 -1 28 -3 7 -3 9 2 5 10 -10 37 11 30 22 -3 5 0
12 7 16 7 4 10 4 6 -1 -4 -4 -4 -13 1 -19 10 -13 26 -104 17 -95 -4 4 -9 19
-12 35 -3 16 -9 33 -14 38 -5 5 -7 0 -4 -11 3 -12 0 -24 -6 -28 -9 -5 -10 -1
-6 16 6 20 5 21 -4 6 -6 -9 -9 -21 -6 -25 3 -4 -6 -8 -19 -8 -16 0 -21 4 -18
16 4 10 0 8 -11 -5 -12 -13 -16 -15 -13 -5 3 9 -1 24 -8 33 -12 17 -13 17 -19
0 -6 -15 -9 -15 -17 -3 -9 12 -10 12 -5 -3 3 -10 2 -16 -4 -12 -5 3 -8 0 -7
-7 2 -7 2 -9 -1 -4 -2 4 -9 2 -14 -5 -8 -11 -9 -11 -5 2 4 13 -5 15 -53 14
-53 -1 -57 0 -52 19 5 20 6 20 13 0 5 -13 8 -14 8 -4 1 13 2 13 11 0 9 -13 10
-13 10 0 0 13 1 13 10 0 9 -13 10 -13 10 0 0 13 1 13 10 0 9 -13 10 -13 10 0
0 13 1 13 10 0 9 -13 10 -13 10 0 0 12 2 12 9 2 7 -11 9 -10 15 3 3 9 10 13
16 10 6 -3 13 1 16 10 6 13 8 14 15 3 6 -9 9 -1 10 22 l1 35 7 -36 c4 -19 14
-45 23 -58z m-261 -24 c-11 -18 -21 -26 -21 -18 0 11 -4 10 -16 -5 -8 -10 -12
-13 -8 -5 4 9 3 12 -4 8 -5 -4 -8 -17 -5 -30 4 -18 3 -19 -6 -7 -9 12 -11 9
-7 -12 3 -15 0 -30 -5 -33 -5 -4 -10 2 -10 12 -1 17 -2 17 -6 0 -2 -9 -9 -15
-14 -11 -5 3 -6 11 -2 17 4 7 -2 5 -12 -3 -17 -13 -18 -13 -10 0 7 13 6 13 -7
2 -14 -11 -17 -9 -24 20 -4 18 -9 27 -11 21 -3 -7 2 -26 11 -43 8 -17 10 -27
4 -24 -7 4 -8 2 -4 -4 4 -7 2 -20 -4 -29 -9 -15 -10 -12 -6 14 2 17 1 35 -2
38 -4 4 -7 31 -7 60 0 29 2 51 4 49 2 -2 10 1 17 7 10 8 12 0 8 -40 -5 -54 10
-77 25 -39 7 16 10 18 10 6 2 -33 20 -28 42 11 12 22 26 38 31 35 4 -3 11 2
14 11 6 13 8 14 15 3 6 -9 11 -2 16 22 4 21 9 28 11 17 2 -10 -6 -32 -17 -50z
m37 23 c-1 -17 -6 -33 -11 -37 -6 -4 -7 -1 -2 7 5 8 4 11 -3 7 -5 -4 -8 -17
-5 -30 3 -16 2 -18 -5 -8 -8 11 -11 9 -17 -10 -8 -23 -8 -23 -17 -4 -8 18 -8
18 -4 -3 2 -12 0 -20 -4 -17 -4 3 -6 -5 -2 -17 3 -14 1 -19 -6 -14 -7 4 -10 0
-7 -12 2 -11 -3 -19 -10 -19 -8 0 -11 5 -8 10 3 6 1 7 -6 3 -6 -4 -9 -11 -6
-16 3 -5 0 -12 -6 -16 -9 -5 -10 0 -7 14 4 12 2 20 -3 16 -5 -3 -9 -13 -10
-22 0 -14 -2 -13 -8 3 -5 11 -6 24 -3 29 3 5 1 6 -5 3 -5 -3 -8 -30 -7 -59 1
-36 -1 -47 -6 -33 -6 14 -8 5 -6 -27 2 -26 0 -45 -5 -43 -8 5 -2 -42 7 -56 2
-4 1 -10 -3 -12 -5 -3 -8 -35 -7 -70 0 -36 -3 -64 -7 -61 -4 2 -4 -8 0 -23 4
-16 7 -36 5 -46 -1 -10 2 -14 8 -11 7 5 8 2 3 -7 -10 -16 -14 -50 -6 -45 3 2
7 -19 8 -48 1 -38 -1 -45 -7 -26 -8 25 -8 25 -9 2 -1 -13 -6 -20 -11 -17 -7 4
-6 13 1 26 6 11 8 37 4 57 -10 62 -12 143 -3 148 4 3 4 13 -1 22 -10 21 -9 92
3 110 9 15 0 46 -12 38 -5 -3 -9 1 -9 9 0 8 5 13 11 12 6 -1 12 12 13 28 2 25
9 87 15 131 1 9 33 12 33 4 0 -1 8 -3 17 -5 16 -3 30 8 34 25 5 25 26 60 35
58 6 -2 21 16 33 39 11 23 22 42 23 43 1 0 1 -14 1 -30z m-793 -17 c48 -25 88
-50 153 -98 18 -13 38 -25 43 -27 6 -2 17 -55 24 -117 15 -127 16 -129 102
-175 76 -41 107 -86 97 -141 -5 -22 -9 -67 -9 -100 -1 -37 -9 -73 -20 -95 -26
-48 -25 -121 1 -157 18 -24 25 -77 15 -113 -3 -15 -65 -41 -103 -45 -24 -3
-56 -7 -73 -11 -37 -7 -172 -61 -202 -81 -78 -52 -298 85 -339 211 -9 28 -25
56 -34 63 -22 16 -67 109 -76 159 -4 22 -19 54 -33 73 -23 31 -26 44 -27 125
-2 79 -7 107 -43 210 -22 65 -41 122 -41 126 0 4 18 15 41 25 22 10 68 45 101
77 33 32 67 58 74 58 8 0 33 9 57 20 23 10 60 22 82 25 22 3 56 9 75 14 47 10
75 5 135 -26z m980 -1 c0 -21 62 -25 86 -5 12 10 16 10 16 1 0 -7 3 -20 5 -28
3 -8 3 -11 0 -6 -2 4 -9 2 -14 -5 -6 -10 -7 -6 -3 11 l6 25 -14 -24 c-11 -18
-16 -21 -19 -10 -4 9 -4 9 -3 -2 1 -9 -1 -23 -6 -30 -6 -10 -9 -3 -10 21 l-2
35 -7 -35 c-6 -30 -8 -31 -10 -10 -1 14 -2 29 -1 34 1 5 -6 3 -15 -5 -16 -12
-17 -12 -9 1 8 13 7 13 -10 0 -17 -14 -18 -13 -12 15 l6 30 -12 -27 c-11 -23
-15 -26 -26 -15 -9 7 -12 8 -7 0 10 -19 -25 -8 -40 12 -10 14 -14 15 -14 4 0
-12 -2 -12 -10 1 -7 11 -10 11 -10 2 0 -7 -4 -10 -10 -7 -20 12 -9 22 23 21
17 -1 35 -5 39 -10 13 -19 37 -14 53 11 17 26 30 24 30 -5z m-125 -27 c10 2
24 -3 30 -11 7 -7 16 -11 21 -8 5 3 9 1 9 -5 0 -5 -4 -13 -10 -16 -5 -3 -10 0
-10 7 0 10 -3 9 -11 -2 -9 -12 -10 -11 -5 5 6 20 6 20 -9 1 -15 -19 -15 -19
-16 5 l-1 24 -8 -25 c-7 -22 -15 -10 -10 15 1 6 -2 7 -6 3 -4 -4 -13 -3 -19 2
-9 8 -11 -1 -9 -37 3 -34 1 -43 -6 -33 -5 8 -7 24 -4 35 4 16 3 17 -5 5 -16
-23 -13 -2 5 36 16 33 17 34 30 15 8 -11 22 -18 34 -16z m283 -14 c6 -7 12
-20 13 -28 1 -8 5 -22 9 -31 6 -16 7 -16 19 0 12 16 14 16 24 -5 6 -12 11 -29
9 -37 -1 -8 2 -16 6 -17 13 -3 36 -37 31 -45 -10 -15 7 -30 21 -18 9 7 16 6
25 -5 9 -11 16 -12 25 -5 9 8 15 8 20 0 3 -6 11 -8 16 -5 5 3 6 0 3 -8 -3 -8
-1 -18 5 -22 6 -3 14 1 17 9 3 9 10 16 16 16 5 0 7 -4 4 -9 -4 -5 -2 -11 4
-13 6 -2 1 -9 -11 -16 -15 -10 -19 -10 -14 -1 5 8 4 10 -4 5 -6 -4 -9 -11 -7
-15 3 -4 0 -13 -5 -21 -8 -11 -10 -8 -6 12 2 16 0 26 -7 25 -9 -2 -11 3 -15
35 0 6 -8 3 -16 -8 -10 -14 -14 -15 -15 -5 0 11 -4 10 -15 -5 -15 -18 -15 -18
-13 0 2 12 -4 20 -15 21 -9 2 -15 0 -13 -4 3 -4 0 -13 -5 -21 -8 -11 -9 -8 -6
12 2 17 0 25 -6 21 -6 -3 -7 -1 -3 5 4 7 0 22 -10 34 -9 13 -14 16 -11 7 3 -9
1 -22 -4 -30 -6 -10 -9 -6 -10 16 -1 17 0 35 1 40 10 47 10 47 -7 33 -14 -11
-16 -11 -8 2 6 12 6 13 -6 2 -11 -11 -16 -5 -31 35 -9 26 -17 39 -17 28 -1
-17 -3 -18 -11 -5 -8 11 -9 7 -4 -14 4 -19 3 -27 -3 -23 -11 7 -11 24 3 77 6
26 9 30 12 15 2 -11 9 -26 15 -34z m-267 -36 c25 -1 40 5 50 19 10 14 14 16
14 6 0 -13 2 -13 10 0 9 13 10 13 10 0 0 -13 1 -13 11 0 9 13 10 13 6 0 -2 -8
-13 -14 -25 -14 -12 1 -19 -2 -17 -6 3 -5 2 -16 -2 -26 -6 -16 -7 -16 -14 2
-7 18 -8 18 -9 -1 l-1 -20 -9 20 c-8 18 -9 18 -9 2 -1 -10 -6 -15 -11 -12 -6
4 -7 12 -4 18 5 9 3 8 -6 0 -10 -9 -17 -9 -26 -2 -10 8 -12 6 -9 -10 2 -14 0
-19 -7 -15 -7 5 -8 2 -3 -6 6 -9 4 -11 -5 -5 -8 5 -11 4 -6 -3 3 -6 -1 -9 -11
-7 -10 1 -17 8 -15 15 1 6 -2 9 -8 5 -6 -4 -7 1 -4 12 5 14 4 15 -4 4 -9 -12
-11 -12 -15 0 -2 8 -3 6 -1 -4 1 -9 -2 -15 -6 -12 -4 3 -6 -5 -2 -17 3 -13 1
-19 -5 -15 -7 5 -9 -1 -5 -15 3 -14 2 -19 -7 -14 -6 4 -8 13 -4 19 4 7 0 7
-10 -1 -9 -8 -16 -17 -15 -20 0 -4 -1 -18 -2 -32 -2 -21 -4 -20 -10 10 l-8 35
1 -37 c1 -20 -2 -40 -6 -44 -6 -7 -12 47 -7 71 1 6 -2 7 -6 3 -9 -10 -11 -98
-2 -125 4 -12 3 -25 -2 -28 -5 -3 -10 7 -13 22 -2 16 -3 -16 -2 -69 1 -54 -1
-95 -5 -93 -13 8 -3 -74 11 -92 8 -9 9 -14 4 -11 -7 4 -11 -10 -11 -38 -1 -25
2 -40 6 -34 4 6 6 -7 6 -29 -1 -21 -5 -37 -10 -33 -5 3 -6 0 -2 -7 4 -7 2 -10
-4 -9 -7 2 -14 -5 -15 -15 -2 -11 -7 -22 -11 -25 -4 -4 -5 5 -2 19 3 15 0 26
-7 26 -7 0 -10 -11 -8 -26 3 -26 3 -26 -7 -3 -5 13 -8 29 -5 35 3 7 0 4 -7 -5
-10 -14 -13 -15 -23 -2 -9 13 -11 12 -11 -5 0 -11 4 -17 8 -15 4 2 5 -5 3 -16
-2 -11 0 -18 6 -15 5 4 7 10 4 15 -3 5 0 12 6 16 9 5 10 0 7 -14 -4 -14 -2
-20 4 -15 7 4 8 1 3 -7 -5 -8 -4 -11 3 -6 7 4 9 -5 5 -26 -6 -39 -13 -50 -13
-21 0 11 -9 28 -20 38 -10 9 -19 20 -18 24 0 3 -1 8 -2 11 -9 24 -6 47 7 62 8
9 12 21 9 26 -3 5 1 15 9 22 12 10 15 9 17 -6 0 -11 2 -23 2 -29 3 -20 17 -33
34 -31 13 3 17 13 17 52 0 27 -3 57 -8 66 -4 9 -2 20 3 23 7 4 7 11 2 18 -10
13 -9 194 1 203 3 4 2 17 -3 30 -6 14 -6 26 0 29 5 3 7 15 5 27 -3 12 0 27 6
34 5 6 8 23 5 37 -3 19 0 24 12 22 10 -1 25 5 36 14 10 9 21 15 25 14 3 -2 6
0 6 5 1 4 9 24 20 46 l18 38 19 -36 c23 -44 40 -38 34 12 -3 33 -3 34 10 17 9
-12 27 -20 50 -20z m147 -11 c9 -1 21 5 26 14 16 29 47 23 43 -10 -1 -3 5 -12
14 -19 13 -10 16 -8 21 12 6 22 7 21 18 -11 9 -26 17 -35 33 -34 13 1 19 -3
15 -10 -8 -12 -5 -64 4 -79 4 -6 11 -4 18 6 10 14 12 13 13 -13 1 -47 12 -56
34 -29 11 13 17 18 13 12 -10 -21 4 -36 21 -22 8 6 14 8 14 4 0 -4 7 -2 16 5
8 8 14 9 13 4 -1 -5 1 -17 4 -26 4 -10 9 -26 12 -35 5 -14 10 -13 30 12 21 25
26 28 35 15 5 -8 8 -21 5 -27 -2 -7 4 -17 13 -22 9 -6 13 -11 7 -11 -5 -1 -18
-3 -27 -5 -12 -2 -15 3 -13 17 4 16 2 18 -10 8 -8 -7 -13 -16 -10 -20 3 -5 0
-12 -6 -16 -8 -5 -10 -1 -7 13 3 12 0 20 -7 20 -7 0 -10 -8 -7 -20 3 -14 1
-18 -7 -13 -6 4 -9 11 -6 16 3 5 1 11 -3 14 -5 3 -8 16 -7 30 2 17 -1 23 -13
21 -10 -1 -16 -10 -14 -20 2 -11 -1 -14 -8 -10 -6 4 -9 13 -7 19 3 7 -1 13 -8
13 -7 0 -11 -6 -8 -13 2 -6 -1 -15 -7 -19 -7 -4 -10 -1 -8 10 2 11 -4 19 -15
20 -9 2 -15 0 -13 -4 3 -4 0 -13 -5 -21 -8 -11 -9 -8 -6 12 2 15 1 25 -3 23
-4 -2 -6 6 -5 19 2 14 -2 23 -11 23 -7 0 -10 -5 -7 -11 3 -6 2 -7 -2 -3 -10 9
-15 29 -17 74 -1 20 -5 28 -10 20 -6 -9 -8 -8 -8 3 0 13 -1 13 -10 0 -7 -10
-10 -11 -11 -2 -1 6 -3 17 -4 22 -1 6 -3 13 -4 16 0 3 -7 2 -13 -3 -24 -14
-36 -11 -33 8 3 12 0 17 -7 13 -6 -4 -8 -3 -5 2 3 6 1 16 -4 24 -8 12 -9 11
-7 -5 2 -11 -2 -19 -8 -18 -8 1 -10 -6 -6 -20 3 -13 1 -18 -4 -14 -5 5 -10 13
-10 18 -1 5 -2 12 -3 15 0 4 -8 1 -16 -6 -12 -10 -15 -9 -16 6 0 18 -1 18 -9
-1 l-9 -20 -1 20 c-1 18 -3 17 -12 -5 -14 -31 -15 -35 -18 -62 -2 -17 -4 -14
-10 12 l-7 35 -2 -34 c-1 -39 -10 -38 -13 2 -2 18 -6 23 -13 17 -7 -6 -16 -5
-25 3 -7 6 -10 7 -7 2 3 -6 1 -17 -4 -25 -8 -11 -9 -8 -6 12 2 15 0 25 -4 22
-5 -3 -9 -15 -9 -27 0 -18 -2 -19 -10 -7 -8 12 -10 12 -10 1 0 -8 -3 -11 -7
-8 -3 4 1 15 10 25 10 10 14 21 11 25 -3 3 2 4 13 2 10 -2 18 -4 18 -5 0 -1
13 -3 28 -4 22 -2 31 3 39 20 6 13 15 21 19 18 5 -2 14 4 21 16 l13 20 5 -21
c3 -12 13 -23 23 -25z m2 -23 c-3 -5 -1 -12 5 -16 5 -3 10 -14 9 -23 0 -14 -2
-13 -9 3 -8 18 -9 18 -9 2 -1 -10 -6 -15 -11 -12 -6 4 -8 10 -5 15 3 5 0 12
-6 16 -8 4 -9 3 -5 -5 4 -7 2 -10 -4 -9 -13 3 -22 -22 -22 -61 0 -18 -2 -20
-9 -10 -7 12 -9 12 -9 0 0 -8 -3 -12 -6 -9 -3 4 -1 15 5 25 5 11 12 33 14 49
3 21 9 29 25 29 11 0 24 3 28 8 10 10 16 9 9 -2z m44 -3 c-1 -1 3 -13 9 -25 8
-14 9 -24 2 -28 -5 -3 -11 4 -11 17 -1 20 -2 21 -6 3 -3 -11 -10 -24 -15 -30
-8 -7 -9 -4 -4 8 3 11 9 30 12 43 4 14 8 23 11 20 3 -2 4 -6 2 -8z m711 -9 c0
-5 7 -6 15 -3 10 4 15 0 15 -11 0 -9 4 -14 9 -10 6 3 3 -15 -6 -41 -12 -34
-18 -43 -25 -33 -7 10 -8 8 -5 -8 5 -23 -14 -48 -28 -35 -4 4 -6 0 -3 -8 3 -8
-1 -31 -8 -52 -7 -20 -10 -39 -7 -42 8 -8 -17 -37 -27 -31 -4 3 -11 -2 -14
-10 -3 -8 -9 -15 -13 -14 -4 1 -10 0 -13 -1 -30 -11 -43 -5 -67 32 -28 45 -31
56 -32 106 -1 18 -5 31 -9 28 -4 -2 -9 5 -9 17 -2 18 0 19 8 7 8 -12 9 -9 7
10 -2 19 1 25 15 23 12 0 16 4 13 13 -3 8 -2 14 3 14 12 0 21 -39 11 -45 -5
-3 -11 -1 -15 5 -3 5 -12 10 -18 10 -7 0 -4 -5 6 -11 9 -5 17 -15 17 -22 0 -9
-3 -8 -9 1 -4 8 -8 -8 -8 -40 0 -35 1 -41 4 -18 7 52 19 56 18 6 0 -24 -2 -43
-5 -41 -3 2 -6 -5 -6 -15 0 -10 4 -18 9 -17 5 1 10 -8 12 -20 1 -13 5 -26 10
-30 4 -5 4 2 1 14 -4 13 -2 24 5 29 8 5 10 2 7 -8 -4 -8 -2 -21 3 -29 7 -12 9
-12 9 1 0 13 2 13 11 0 9 -13 10 -13 6 1 -4 12 1 16 16 15 17 -1 21 4 19 19
-2 19 -2 19 12 1 15 -18 15 -18 15 0 2 67 10 119 19 117 5 -1 8 6 5 17 -3 10
0 27 6 37 10 15 11 12 7 -17 l-6 -35 14 35 c11 29 14 31 18 15 2 -11 4 -1 4
22 0 23 -4 36 -8 30 -5 -9 -8 -8 -8 3 0 13 -2 13 -11 0 -9 -12 -10 -11 -5 5 6
20 6 20 -9 1 -11 -14 -15 -16 -15 -5 0 12 -2 12 -10 -1 -9 -13 -10 -13 -10 0
0 13 -1 13 -10 0 -8 -13 -10 -13 -10 2 0 9 5 18 10 20 22 7 70 5 70 -3z m-980
-23 c0 5 5 2 10 -6 5 -8 9 -22 9 -30 0 -10 -3 -9 -10 5 -9 19 -9 18 -5 -2 2
-13 0 -26 -5 -29 -5 -3 -10 10 -10 28 l-2 33 -7 -35 c-7 -34 -13 -26 -11 15
l1 20 -9 -20 c-4 -11 -6 -27 -4 -35 4 -13 4 -13 -6 0 -9 13 -11 13 -11 0 0
-13 -1 -13 -10 0 -7 11 -8 4 -6 -22 3 -25 0 -36 -7 -31 -6 3 -7 1 -3 -5 4 -7
0 -10 -11 -8 -13 3 -18 -3 -20 -22 -1 -18 1 -21 8 -11 6 10 8 8 6 -8 0 -12 -5
-19 -9 -17 -4 3 -5 -3 -2 -13 4 -12 3 -14 -3 -6 -5 7 -8 -14 -8 -52 1 -35 -2
-62 -5 -60 -3 2 -5 -19 -5 -45 0 -34 3 -46 11 -39 7 5 11 3 11 -6 0 -8 -3 -12
-7 -10 -4 2 -7 -1 -7 -8 0 -7 -2 -19 -4 -27 -2 -8 1 -14 6 -13 10 1 13 -53 5
-67 -3 -6 -7 -28 -17 -95 -5 -41 -8 -46 -13 -25 -4 14 -3 34 3 45 8 16 7 18
-3 8 -7 -7 -13 -23 -14 -38 -1 -14 -5 -25 -10 -24 -5 0 -12 -5 -16 -11 -5 -7
-7 1 -7 18 1 17 5 28 9 26 10 -6 29 32 20 41 -4 5 -2 5 5 1 6 -3 15 -1 19 6
10 15 13 79 5 93 -10 18 -11 44 -2 50 5 3 2 19 -6 36 -11 22 -13 37 -6 52 6
12 9 44 8 72 -2 27 2 61 8 75 6 14 10 28 9 31 -9 47 -9 59 -3 54 13 -8 41 29
43 58 2 20 5 23 15 15 9 -8 15 -3 23 17 5 14 10 31 10 37 0 6 9 3 20 -7 11
-10 20 -14 20 -9z m327 18 c-9 -10 12 -46 23 -39 9 5 17 -16 23 -56 4 -24 18
-40 29 -33 6 4 9 1 6 -7 -3 -8 -1 -27 3 -43 5 -16 4 -36 -1 -45 -7 -12 -9 -9
-8 14 1 39 -12 81 -21 67 -4 -7 -11 -4 -20 9 -7 12 -9 19 -4 16 5 -3 7 11 4
31 l-5 37 -7 -35 c-7 -38 -11 -32 -11 15 l1 30 -8 -30 c-9 -30 -11 -26 -16 30
-3 30 1 45 12 45 4 0 3 -3 0 -6z m612 -29 c29 1 41 -2 41 -12 0 -8 -4 -11 -10
-8 -9 6 -17 -8 -35 -60 -4 -11 -8 -39 -9 -62 -1 -24 -5 -45 -8 -49 -4 -3 -5
19 -4 50 1 30 0 53 -4 51 -4 -2 -7 2 -7 10 0 11 4 12 13 4 10 -8 12 -2 8 27
-5 44 -14 58 -14 23 0 -18 -2 -21 -9 -9 -6 8 -7 19 -3 25 3 5 -3 3 -13 -5 -15
-12 -17 -12 -10 -1 6 10 4 12 -5 6 -9 -6 -11 -4 -5 6 5 8 4 10 0 6 -9 -7 -12
-20 -19 -62 -5 -30 -6 -31 -14 -18 -4 6 -8 -12 -8 -40 -1 -38 1 -45 6 -27 7
22 8 20 10 -15 l3 -40 7 40 c8 45 12 39 12 -18 0 -21 -4 -43 -10 -49 -7 -7
-10 -4 -9 8 1 10 -5 19 -13 19 -12 0 -15 14 -16 65 -1 36 1 69 5 75 3 5 4 22
2 37 -2 26 6 33 32 29 4 0 7 5 7 12 0 8 4 7 10 -3 8 -12 10 -12 10 5 1 19 2
19 10 -1 7 -17 16 -21 49 -19z m-633 -20 c2 -23 15 -49 34 -71 32 -37 36 -49
20 -59 -6 -4 -7 1 -4 12 5 15 4 16 -6 3 -10 -12 -11 -11 -7 8 3 13 3 21 0 18
-10 -9 -33 15 -26 27 3 6 1 7 -6 3 -6 -4 -9 -11 -6 -16 3 -5 0 -12 -5 -15 -8
-5 -9 6 -5 33 3 22 1 43 -4 46 -5 4 -7 -3 -3 -16 3 -14 2 -19 -7 -14 -6 4 -9
11 -6 16 3 5 1 12 -5 15 -6 4 -10 3 -9 -2 4 -20 -2 -24 -18 -12 -10 8 -14 9
-10 2 4 -6 2 -15 -4 -19 -8 -5 -10 -1 -7 14 4 16 2 20 -13 17 -13 -3 -16 1
-12 13 4 14 3 14 -5 3 -7 -9 -7 -23 -1 -38 14 -37 11 -47 -8 -32 -9 8 -14 9
-10 3 3 -6 0 -11 -8 -11 -8 0 -11 5 -8 11 4 6 -1 5 -10 -3 -15 -12 -17 -11
-18 5 0 18 -1 18 -10 -1 -7 -15 -8 -12 -4 15 3 24 2 29 -3 16 -10 -23 -19 -11
-16 22 3 42 6 47 13 22 4 -14 13 -24 19 -23 7 2 11 -7 9 -19 -1 -17 3 -23 18
-23 15 0 21 7 22 30 5 58 5 59 25 35 11 -13 18 -17 18 -9 1 9 4 8 11 -4 8 -14
14 -16 25 -6 8 6 14 8 14 4 0 -4 6 -2 14 5 8 6 12 19 9 28 -3 9 -3 14 1 10 5
-4 10 -23 12 -43z m-220 3 c-1 -18 3 -44 11 -58 11 -23 18 -26 60 -25 l48 1
-2 35 -2 34 13 -35 c8 -20 10 -39 5 -44 -5 -6 -9 -21 -9 -34 0 -13 -4 -21 -9
-18 -5 3 -7 15 -4 25 3 10 0 22 -5 25 -6 4 -8 -3 -6 -16 l5 -23 -13 23 -12 23
-13 -23 -14 -23 4 23 c3 12 3 22 1 22 -3 0 -9 -10 -15 -22 l-10 -23 5 23 c5
28 -2 29 -13 0 -7 -18 -9 -15 -15 23 -6 34 -10 39 -15 25 -7 -17 -8 -17 -14
-3 -3 9 -4 25 -2 37 3 13 0 18 -7 14 -7 -5 -8 -2 -3 6 5 8 4 11 -3 6 -6 -3 -9
-16 -7 -28 3 -11 0 -28 -6 -37 -9 -13 -10 -12 -6 6 3 13 2 25 -2 27 -4 3 -8
-5 -8 -16 -1 -12 -7 -26 -14 -32 -8 -8 -10 -5 -4 14 5 19 4 21 -4 10 -10 -13
-11 -13 -11 0 -1 9 -6 6 -16 -10 -13 -21 -15 -22 -11 -4 2 11 -1 21 -7 21 -6
0 -11 -10 -11 -23 0 -12 4 -20 9 -16 5 3 5 -1 0 -9 -5 -8 -9 -17 -10 -21 -4
-21 -6 -21 -15 -3 -9 19 -9 18 -5 -2 2 -13 1 -25 -3 -28 -4 -2 -6 -19 -5 -37
3 -31 3 -31 -6 -8 -8 22 -9 20 -5 -11 3 -19 2 -38 -2 -42 -3 -4 -8 -19 -9 -34
-2 -21 -1 -24 6 -13 5 8 10 10 10 4 0 -6 -3 -14 -7 -18 -10 -10 -13 -37 -3
-31 7 4 7 -33 -1 -65 -2 -9 2 -14 10 -12 9 2 12 -4 8 -18 -3 -13 -1 -18 6 -13
9 5 9 3 1 -8 -6 -8 -10 -22 -9 -32 2 -10 -1 -14 -7 -11 -7 5 -8 2 -3 -6 5 -8
4 -11 -2 -7 -10 6 -9 -65 1 -82 3 -4 1 -13 -5 -21 -6 -11 -9 -5 -10 20 l-2 35
-7 -30 c-6 -25 -7 -23 -3 10 5 51 8 66 16 85 10 26 1 75 -13 72 -10 -2 -10 2
1 20 17 26 18 54 3 51 -6 -1 -9 13 -7 30 2 18 5 55 8 84 2 28 8 60 13 70 5 10
8 30 6 46 -1 15 1 25 6 22 11 -7 25 15 25 40 0 16 7 20 31 20 33 0 64 19 64
41 0 8 8 11 20 9 12 -2 23 2 27 10 8 24 12 18 9 -17z m790 -70 c-1 -20 1 -35
5 -32 4 2 6 25 4 50 -4 54 7 51 12 -4 9 -87 3 -149 -14 -149 -7 0 -11 17 -10
43 1 42 -5 58 -24 60 -5 1 -11 2 -14 3 -3 0 0 11 7 24 13 22 14 27 17 57 3 33
19 -15 17 -52z m-598 19 c7 -5 10 -13 6 -18 -3 -6 -3 -17 0 -26 5 -12 9 -13
21 -3 12 10 16 8 24 -13 14 -36 27 -41 45 -15 l16 22 1 -24 c1 -14 1 -28 0
-33 -1 -4 3 -25 8 -47 5 -24 5 -42 0 -46 -5 -3 -10 12 -10 33 l-2 38 -7 -40
c-5 -30 -8 -34 -10 -15 -1 14 -1 30 0 35 7 31 3 48 -13 51 -9 1 -15 -2 -12 -6
3 -5 0 -12 -6 -16 -9 -5 -10 -1 -7 14 4 13 1 20 -5 19 -6 -1 -11 3 -12 10 0 6
-4 15 -9 20 -5 4 -7 3 -3 -3 3 -6 0 -11 -8 -11 -8 0 -11 5 -8 10 3 6 1 7 -6 3
-6 -4 -9 -11 -6 -16 3 -5 0 -12 -6 -16 -9 -5 -10 0 -7 14 4 14 2 20 -4 15 -7
-4 -8 -1 -2 8 13 22 13 37 -1 49 -10 8 -12 4 -10 -20 1 -16 -1 -27 -6 -25 -4
3 -6 -13 -4 -36 4 -35 2 -39 -10 -29 -8 7 -16 10 -16 6 -1 -3 -2 -10 -3 -15 0
-5 -5 -13 -10 -18 -5 -5 -7 2 -3 15 3 13 3 21 0 18 -4 -3 -15 2 -26 11 -11 10
-17 13 -14 6 4 -6 3 -14 -3 -18 -5 -3 -10 2 -11 12 0 16 -1 16 -9 -2 l-9 -20
-1 20 c-1 19 -2 19 -9 1 -6 -16 -10 -13 -24 22 -18 46 -28 55 -21 20 l5 -23
-10 23 c-13 28 -21 29 -13 0 3 -14 2 -19 -7 -14 -6 4 -9 11 -6 16 3 5 0 12 -6
16 -8 4 -9 3 -5 -5 5 -7 2 -10 -5 -9 -7 2 -13 -2 -14 -9 0 -6 -4 -15 -9 -20
-5 -4 -7 1 -4 13 3 13 0 21 -7 21 -7 0 -11 -6 -8 -14 6 -14 -15 -45 -26 -39
-4 3 -7 -3 -8 -12 -1 -24 -11 -96 -13 -102 -1 -3 -1 -9 0 -15 6 -29 8 -75 2
-71 -4 2 -7 -9 -8 -26 -1 -20 2 -25 7 -16 10 15 11 11 13 -54 1 -25 -1 -45 -4
-43 -3 2 -6 -9 -7 -23 0 -15 -4 -40 -7 -57 -4 -24 -4 -25 2 -5 4 14 11 20 14
15 3 -6 -2 -25 -12 -43 l-18 -33 0 35 c0 19 -3 39 -6 45 -4 6 -1 21 6 33 7 13
13 30 13 38 0 8 3 20 6 25 10 16 -9 57 -22 49 -8 -5 -9 -3 -4 6 12 19 14 69 3
76 -5 3 -4 11 2 19 8 9 8 20 2 31 -6 11 -5 26 5 45 8 16 13 40 11 53 -1 13 5
32 14 43 9 10 16 20 15 23 -1 3 6 15 14 28 14 20 17 21 23 6 5 -13 9 -14 21
-4 8 7 15 9 15 4 0 -5 7 -1 14 9 12 16 14 16 20 2 3 -9 10 -14 15 -10 5 3 11
-7 13 -22 2 -22 8 -27 31 -29 16 0 31 5 34 12 4 10 11 7 25 -11 22 -29 38 -25
38 10 0 13 5 27 10 30 6 4 8 11 4 16 -16 27 13 44 44 26z m848 -23 c-9 -23 3
-37 20 -23 17 14 18 5 3 -22 -6 -12 -7 -25 -2 -32 12 -16 10 -71 -2 -76 -13
-5 -44 48 -43 74 0 16 2 15 8 -5 7 -21 8 -22 9 -4 1 11 6 25 12 31 8 8 7 13
-2 18 -8 6 -10 4 -4 -6 7 -11 5 -11 -10 1 -10 8 -16 10 -12 3 4 -6 3 -14 -2
-17 -5 -4 -12 2 -15 11 -2 10 -2 0 0 -22 4 -26 2 -35 -4 -27 -13 20 -9 67 6
64 7 -1 18 9 24 23 12 27 24 35 14 9z m-1065 -59 c9 2 21 -7 27 -20 10 -22 43
-28 69 -12 8 5 18 -4 28 -29 16 -39 20 -62 8 -50 -8 7 -9 11 -12 39 -1 8 -4 8
-12 -3 -9 -13 -10 -12 -5 2 3 10 0 20 -6 24 -7 5 -8 2 -3 -7 8 -12 6 -12 -9 0
-9 8 -16 10 -15 5 1 -5 0 -20 -1 -34 -2 -21 -4 -20 -10 10 l-8 35 1 -42 c0
-23 -2 -46 -6 -49 -6 -6 -12 53 -8 78 0 4 -8 5 -19 3 -12 -2 -19 -1 -17 3 3 4
1 16 -4 27 -7 18 -8 18 -8 2 -1 -10 -6 -15 -11 -12 -6 4 -7 12 -3 18 3 7 -2 5
-13 -4 -10 -9 -26 -15 -35 -14 -11 2 -15 -5 -12 -29 2 -29 2 -29 -6 -6 -7 20
-9 16 -6 -20 2 -25 -2 -51 -7 -57 -7 -9 -7 -23 1 -43 5 -17 7 -28 2 -26 -10 7
-7 -52 4 -62 4 -4 4 4 0 17 -4 15 -3 21 3 17 5 -3 10 -22 9 -41 -1 -19 -4 -30
-8 -24 -3 6 -6 -3 -5 -19 1 -17 5 -28 10 -24 5 3 5 -1 0 -9 -11 -18 -13 -79
-2 -73 4 3 8 -5 8 -18 0 -17 -3 -19 -9 -9 -6 9 -8 4 -8 -17 1 -17 6 -28 11
-25 5 4 6 0 1 -7 -5 -8 -4 -11 3 -6 6 3 13 2 17 -4 4 -6 10 -8 15 -5 9 6 32
-29 36 -53 1 -8 6 -17 10 -20 4 -4 4 1 1 10 -3 10 -2 20 3 23 6 4 11 -4 11
-17 l2 -23 4 23 c2 12 9 20 14 17 5 -4 5 -14 -2 -26 -6 -12 -8 -23 -5 -27 3
-3 6 0 6 7 0 7 9 3 21 -10 l20 -24 -17 28 c-9 15 -14 30 -11 34 7 7 31 -44 31
-67 1 -8 6 -15 11 -15 20 0 34 -16 30 -35 -2 -12 -1 -18 3 -16 4 3 8 -7 9 -22
0 -15 -1 -19 -4 -9 -2 9 -9 14 -15 11 -6 -4 -8 -3 -5 3 4 5 -7 22 -23 38 -17
17 -26 33 -23 43 4 9 2 13 -4 9 -6 -4 -20 4 -31 18 -11 13 -22 22 -25 19 -3
-3 -10 4 -17 15 -6 12 -15 19 -21 16 -5 -4 -8 -1 -7 7 2 7 -3 12 -10 10 -7 -1
-15 5 -18 13 -3 8 -10 13 -14 10 -4 -2 -16 5 -26 16 -17 19 -17 22 -1 48 10
17 13 31 7 37 -6 6 -6 22 -2 39 5 17 7 50 5 75 -2 25 -5 70 -7 100 -2 30 -4
60 -6 65 -1 6 -1 12 0 15 1 3 3 23 6 44 4 40 31 93 41 82 10 -10 33 15 26 28
-3 6 2 4 13 -5 10 -9 26 -15 35 -14z m197 -23 c6 -18 7 -30 2 -27 -6 3 -7 0
-4 -8 3 -8 0 -18 -7 -23 -9 -5 -10 -2 -5 12 6 15 5 16 -5 7 -7 -7 -13 -27 -13
-45 -1 -27 -5 -32 -28 -33 -14 -1 -25 3 -24 9 2 6 1 7 -2 2 -2 -4 -8 -2 -13 5
-7 12 -9 11 -9 -1 0 -13 -2 -13 -11 0 -9 13 -10 12 -5 -2 3 -10 2 -26 -1 -35
-6 -15 -7 -15 -14 3 -7 18 -8 18 -9 -1 l-1 -20 -9 20 -9 20 0 -20 c-1 -14 -4
-16 -9 -7 -5 7 -7 33 -6 58 2 36 0 43 -10 35 -15 -13 -41 10 -28 24 4 5 1 5
-6 1 -7 -4 -10 -11 -7 -16 3 -5 0 -12 -6 -16 -9 -5 -10 0 -6 16 4 17 3 20 -5
12 -6 -6 -12 -34 -12 -61 -1 -37 -4 -47 -13 -40 -8 7 -10 5 -8 -8 2 -10 4 -19
5 -20 2 -2 3 -6 4 -10 1 -5 4 -12 7 -18 4 -5 6 -37 5 -70 -1 -33 3 -66 9 -74
7 -11 7 -13 -1 -8 -11 6 -10 -71 1 -101 3 -7 1 -11 -4 -8 -5 4 -6 -4 -3 -16 5
-19 7 -20 10 -5 2 9 8 15 13 11 5 -3 6 -10 3 -16 -5 -7 -2 -8 6 -3 9 6 11 4 5
-6 -7 -11 -5 -11 10 1 17 14 18 13 11 -15 -5 -22 -4 -26 4 -15 9 13 10 13 10
0 0 -13 1 -13 10 0 8 13 10 13 10 1 0 -11 4 -10 16 5 12 15 15 16 10 2 -2 -9
2 -22 9 -28 8 -7 13 -15 11 -19 -2 -3 1 -15 5 -26 9 -18 9 -18 5 2 -2 13 0 26
5 29 6 3 9 -10 7 -30 -1 -19 1 -38 4 -41 4 -4 6 14 5 39 0 25 2 49 6 52 4 4 7
-15 7 -43 0 -31 5 -55 14 -62 7 -6 14 -32 14 -58 1 -52 12 -74 12 -24 0 18 4
30 9 27 11 -7 3 -44 -16 -71 -13 -20 -14 -18 -15 38 -1 17 -5 38 -11 45 -5 6
-6 12 -2 12 5 0 0 9 -10 20 -10 11 -22 17 -28 13 -6 -3 -7 -1 -3 5 14 23 -47
102 -74 97 -11 -2 -25 6 -35 22 -9 13 -19 22 -22 19 -4 -3 -15 1 -25 10 -13
13 -15 20 -7 30 7 9 8 24 3 41 -10 35 -12 55 -5 67 9 19 8 111 -2 124 -5 7 -7
15 -4 18 3 3 1 18 -4 32 -5 14 -7 33 -3 41 11 23 10 22 19 69 4 23 10 40 13
37 3 -2 11 0 18 6 8 7 14 7 19 -1 3 -6 11 -8 16 -4 5 3 8 0 7 -7 -2 -7 4 -13
12 -14 9 0 16 -12 18 -30 5 -56 11 -62 32 -35 11 14 20 34 20 45 1 19 1 19 11
2 6 -9 15 -14 21 -11 6 4 9 3 5 -2 -3 -5 1 -17 8 -27 13 -18 13 -18 19 1 4 11
4 26 1 35 -4 8 -1 18 4 22 6 3 8 12 4 18 -4 8 -1 7 9 -1 21 -17 31 -1 22 35
-9 36 0 27 14 -15z m197 8 c-1 -17 -7 -36 -14 -43 -10 -9 -11 -8 -5 8 4 11 4
17 0 14 -11 -10 -17 -59 -9 -72 11 -17 13 -38 3 -32 -4 3 -6 -5 -4 -17 l5 -23
-10 23 c-6 12 -12 22 -15 22 -2 0 -2 -10 1 -22 l4 -23 -14 23 -13 23 -12 -23
c-12 -23 -12 -23 -8 -1 2 13 -1 21 -7 20 -6 -1 -11 9 -11 23 -1 29 -25 75 -26
50 0 -13 -2 -13 -9 -1 -5 8 -8 22 -6 31 2 9 -3 17 -10 17 -13 0 -14 -21 -2
-33 4 -4 7 -12 7 -18 0 -6 -5 -4 -10 4 -8 11 -9 7 -4 -15 7 -28 6 -29 -11 -15
-15 12 -17 12 -10 1 5 -9 4 -12 -2 -8 -6 4 -9 -4 -7 -18 1 -14 -2 -23 -6 -20
-5 3 -7 -3 -5 -13 2 -11 -3 -19 -10 -19 -8 0 -11 5 -8 11 4 6 -1 5 -10 -3 -15
-12 -17 -11 -17 3 0 10 4 15 9 12 14 -9 31 18 26 43 -2 12 0 19 5 16 12 -8 40
34 33 51 -6 17 16 46 29 38 5 -3 14 -17 19 -31 9 -25 10 -25 29 -8 19 17 19
17 14 -6 -12 -50 -4 -89 19 -85 25 3 34 16 30 39 -4 20 29 107 41 107 1 0 2
-14 1 -30z m71 4 c-3 -7 -1 -16 5 -19 5 -4 7 -10 4 -15 -9 -15 33 -33 48 -20
1 1 17 3 35 5 29 3 32 1 31 -23 l-1 -27 -9 25 c-9 25 -9 25 -5 -3 2 -15 -1
-30 -5 -33 -5 -3 -10 10 -10 28 l-2 33 -7 -35 c-5 -22 -8 -27 -9 -13 0 12 -5
24 -10 28 -6 3 -6 -7 0 -27 11 -41 11 -41 -1 -33 -5 3 -10 17 -10 30 0 13 -4
26 -8 29 -5 3 -7 -9 -5 -27 2 -25 1 -28 -6 -12 -5 11 -7 23 -5 27 3 4 -1 10
-7 14 -7 4 -9 3 -6 -3 3 -5 0 -10 -8 -10 -7 0 -12 8 -10 19 2 10 0 16 -4 14
-4 -3 -8 12 -7 34 0 21 4 36 9 33 5 -3 6 -11 3 -19z m-22 -34 c2 -14 5 -26 7
-27 1 -2 2 -9 3 -15 1 -7 7 -12 14 -10 7 1 17 -10 22 -24 6 -15 13 -24 17 -20
3 3 12 1 19 -5 11 -9 15 -7 20 6 5 13 9 14 15 3 5 -7 9 -19 9 -27 0 -11 -3
-11 -17 0 -9 8 -14 9 -10 2 5 -7 1 -10 -10 -8 -10 1 -17 8 -15 15 1 6 -2 9 -8
5 -6 -3 -8 -10 -5 -15 3 -5 0 -12 -6 -16 -9 -5 -10 -1 -7 14 4 13 2 20 -6 19
-6 -1 -10 8 -10 21 1 19 -1 20 -14 10 -13 -11 -14 -11 -7 1 5 10 4 12 -4 7 -6
-4 -9 -11 -6 -16 3 -5 1 -11 -5 -15 -12 -8 -13 17 -1 31 5 5 5 19 -2 34 -5 14
-9 34 -9 45 l2 20 -9 -20 c-5 -11 -6 -24 -3 -29 3 -5 0 -6 -7 -2 -7 5 -10 2
-9 -6 2 -7 -2 -12 -8 -11 -6 1 -11 -4 -11 -12 0 -8 3 -12 6 -10 4 2 7 -16 7
-40 0 -24 -4 -42 -7 -39 -4 2 -5 -6 -1 -18 3 -14 2 -19 -7 -14 -6 4 -9 11 -7
15 3 4 -1 8 -9 8 -8 0 -12 -4 -9 -8 2 -4 0 -10 -6 -14 -5 -3 -11 2 -11 12 -1
17 -2 17 -6 0 -2 -9 -9 -15 -14 -11 -5 3 -6 10 -3 16 5 7 2 8 -7 2 -28 -17
-37 -12 -33 20 3 25 2 27 -6 11 -7 -15 -9 -8 -6 27 2 27 0 46 -5 43 -4 -3 -6
-13 -3 -23 5 -14 4 -15 -5 -2 -8 11 -9 5 -6 -25 4 -28 3 -34 -3 -20 -5 11 -8
29 -7 40 1 11 3 25 4 32 2 22 36 6 37 -18 1 -13 7 -37 13 -54 12 -28 13 -29
26 -12 10 15 14 15 18 3 8 -20 39 -13 47 10 7 22 6 32 -4 55 -8 19 43 104 56
91 4 -4 9 -19 12 -32z m-16 -67 c-6 -7 -7 -20 -4 -29 6 -15 8 -15 27 2 11 10
19 14 18 9 -1 -6 3 -23 10 -39 6 -16 10 -34 7 -40 -2 -6 -5 -2 -6 9 l-1 20
-10 -20 c-7 -16 -8 -13 -5 13 3 24 1 31 -7 24 -7 -5 -19 -8 -28 -7 -12 2 -15
-5 -13 -30 3 -38 -10 -65 -19 -41 -4 9 -3 26 1 39 5 12 8 42 7 67 -1 51 15 84
26 53 3 -10 2 -24 -3 -30z m-423 25 c4 4 5 -9 2 -28 -6 -44 7 -70 33 -65 13 3
20 -2 20 -12 0 -13 -2 -14 -17 -2 -15 12 -16 12 -8 -1 8 -13 7 -13 -10 0 -10
8 -16 10 -12 3 4 -6 2 -15 -4 -19 -9 -5 -10 0 -7 14 4 12 2 20 -3 16 -5 -3 -6
3 -3 13 5 15 4 15 -4 3 -8 -11 -11 -7 -10 18 1 18 -3 37 -9 43 -6 6 -8 -5 -6
-31 2 -29 0 -39 -9 -34 -7 5 -8 3 -3 -6 5 -8 4 -11 -2 -7 -5 3 -10 0 -10 -8 0
-10 4 -11 11 -6 8 7 11 -14 10 -74 -1 -47 3 -82 7 -79 5 3 8 -10 8 -28 -1 -21
-3 -26 -6 -13 -3 11 -10 27 -17 35 -7 9 -11 41 -10 75 1 33 -3 66 -8 73 -6 6
-7 12 -3 12 4 0 2 7 -5 16 -11 12 -11 15 1 12 10 -2 14 8 13 39 0 23 3 40 7
37 4 -2 11 0 14 6 5 8 11 8 19 1 7 -6 16 -7 21 -3z m611 -45 c1 -27 3 -48 4
-48 1 0 4 -11 6 -25 3 -13 11 -28 19 -33 8 -4 11 -15 8 -24 -4 -11 -3 -14 5
-9 8 5 10 1 5 -10 -4 -12 -3 -15 5 -10 7 4 12 1 12 -8 0 -8 -5 -18 -10 -21 -6
-4 -9 -1 -8 7 2 7 -2 12 -9 11 -8 -2 -10 4 -7 15 5 15 4 15 -6 2 -10 -13 -11
-12 -6 3 4 12 2 16 -7 12 -6 -4 -3 1 7 9 11 9 15 16 10 16 -6 0 -15 -5 -22
-12 -7 -7 -12 -10 -13 -7 0 2 -3 13 -6 24 -2 11 -5 27 -6 36 -1 9 -7 16 -14
16 -7 0 -10 -4 -7 -9 3 -4 0 -16 -6 -25 -10 -16 -11 -15 -7 4 3 13 0 26 -5 30
-7 4 -8 1 -3 -8 8 -12 6 -12 -9 0 -9 8 -16 10 -15 5 1 -5 0 -18 -1 -29 -2 -15
-4 -12 -10 10 l-8 30 -1 -27 c0 -15 -6 -30 -13 -34 -7 -5 -8 -3 -3 7 7 11 5
11 -10 -1 -17 -13 -18 -13 -10 0 8 13 7 13 -8 1 -15 -12 -17 -11 -17 4 0 10
-2 16 -6 13 -5 -5 -8 -25 -14 -83 -1 -15 -4 -13 -10 9 -6 18 -5 36 1 48 5 10
7 22 4 27 -8 14 4 38 19 38 7 0 12 -9 12 -20 -1 -28 33 -31 43 -4 6 17 17 22
42 22 30 0 34 3 34 27 0 15 6 33 13 39 6 7 12 20 12 28 0 36 13 -3 16 -46z
m-392 1 c2 -11 7 -32 11 -49 5 -17 4 -27 -1 -22 -9 9 -10 11 -13 45 -2 15 -3
14 -10 -3 -5 -11 -6 -24 -3 -29 3 -5 0 -6 -7 -2 -6 4 -11 4 -10 -1 1 -4 0 -19
-1 -33 -2 -21 -4 -20 -10 10 l-7 35 -2 -34 c-1 -39 -10 -38 -13 2 -2 18 -6 23
-14 16 -16 -13 -33 11 -24 35 6 19 7 19 12 -1 4 -15 13 -20 34 -19 16 1 30 7
30 14 1 7 3 14 4 17 3 7 7 23 9 37 1 16 11 5 15 -18z m-117 -35 c-3 -10 3 -25
14 -35 10 -9 19 -13 20 -8 1 5 4 -2 8 -15 7 -27 40 -37 47 -15 16 52 14 51 29
30 13 -18 14 -17 21 8 6 24 15 30 16 9 0 -4 4 -15 8 -24 7 -13 4 -16 -16 -15
-14 1 -29 8 -35 16 -6 10 -8 2 -4 -25 3 -29 2 -35 -4 -20 -9 19 -10 19 -10 1
-1 -16 -3 -17 -18 -5 -15 12 -16 12 -8 -1 8 -13 7 -13 -10 0 -10 8 -16 10 -12
3 4 -6 2 -15 -4 -19 -9 -5 -10 0 -7 14 4 12 2 20 -3 16 -5 -3 -6 1 -3 9 3 8 1
18 -5 22 -6 3 -9 0 -8 -7 2 -7 2 -9 -1 -4 -2 4 -8 2 -13 -5 -6 -10 -8 -5 -5
14 3 18 1 25 -6 21 -7 -5 -9 2 -4 22 5 23 4 25 -4 12 -6 -9 -8 -32 -5 -50 4
-27 2 -30 -7 -16 -11 15 -13 15 -26 0 -12 -15 -13 -15 -9 -1 3 9 -1 16 -9 16
-7 0 -11 -4 -9 -8 3 -4 0 -18 -5 -31 -10 -23 -10 -23 -7 3 3 20 0 26 -12 24
-12 -1 -16 -14 -17 -44 0 -23 2 -37 6 -31 4 6 7 -5 8 -23 1 -19 4 -48 6 -63 3
-16 1 -36 -5 -44 -8 -11 -9 -9 -4 10 l6 25 -14 -24 c-14 -23 -15 -23 -20 -5
-3 13 -4 10 -4 -8 1 -22 4 -25 16 -15 12 10 13 9 6 -2 -6 -10 -4 -12 5 -6 9 6
11 4 5 -5 -6 -9 -4 -11 5 -5 9 6 11 4 5 -5 -5 -9 -4 -11 4 -6 6 4 9 11 6 16
-3 5 0 12 6 15 7 5 9 -3 6 -24 -3 -17 -1 -34 4 -37 5 -3 8 0 7 6 -2 7 5 14 15
15 9 2 14 -1 11 -6 -3 -5 0 -8 8 -7 7 2 12 -4 10 -14 -1 -9 2 -19 8 -23 5 -3
7 0 4 8 -3 8 0 18 7 23 8 5 11 2 7 -8 -4 -8 -1 -15 7 -15 8 0 11 7 7 15 -4 10
-1 13 7 8 7 -5 10 -15 7 -23 -3 -8 -2 -12 2 -9 4 2 6 -20 6 -50 -1 -34 2 -51
9 -47 6 4 7 1 2 -7 -6 -9 -4 -11 5 -5 7 5 11 4 8 -1 -3 -5 -1 -18 3 -29 9 -18
9 -18 5 2 -2 13 1 26 6 29 7 5 9 -4 6 -24 -2 -17 -1 -29 4 -26 4 3 8 16 8 29
0 13 5 27 11 31 7 4 9 0 5 -13 -4 -11 -7 -37 -8 -57 -1 -22 -4 -32 -9 -24 -11
17 -5 -43 6 -62 6 -11 2 -10 -12 3 -16 14 -20 14 -20 3 0 -8 5 -14 11 -13 6 1
10 -4 8 -12 -3 -12 0 -12 12 -1 14 10 16 10 17 -6 0 -18 1 -18 10 1 8 16 8 14
5 -10 l-5 -30 15 30 c13 28 14 28 12 5 -2 -15 2 -24 9 -23 8 2 10 -4 6 -14 -4
-11 -8 -13 -11 -5 -2 7 -8 12 -13 12 -6 0 -7 -6 -4 -12 4 -7 -2 -3 -13 9 -11
12 -22 20 -24 18 -3 -3 -15 6 -28 20 -19 21 -22 29 -13 47 20 41 22 56 9 67
-7 6 -15 8 -19 5 -3 -3 -3 3 -1 13 3 11 -2 25 -10 32 -11 9 -16 30 -16 62 0
52 -11 67 -30 44 -10 -12 -16 -13 -26 -4 -8 6 -11 15 -8 20 8 14 -6 30 -19 22
-22 -14 -35 -11 -40 9 -3 11 -10 17 -15 14 -17 -10 -40 28 -45 72 -4 43 9 71
15 32 2 -12 8 -21 13 -21 13 0 19 38 9 59 -8 16 -14 172 -7 172 2 0 8 -12 13
-26 8 -19 14 -23 23 -16 6 5 20 8 30 7 13 -3 22 8 33 36 16 38 40 45 31 8z
m211 -60 c3 -11 2 -12 -6 -1 -7 11 -12 6 -21 -19 -6 -18 -14 -30 -17 -26 -3 3
-1 14 4 24 5 10 7 23 5 30 -2 6 4 10 13 9 10 -2 20 -9 22 -17z m70 -16 c26
-52 33 -85 22 -103 -8 -12 -10 -9 -9 10 0 14 -2 34 -4 45 -3 11 -6 25 -6 30
-1 6 -6 3 -12 -5 -9 -12 -10 -11 -6 6 2 12 0 28 -5 35 -8 11 -9 10 -5 -3 4
-12 1 -16 -14 -13 -11 2 -17 0 -14 -6 4 -5 3 -9 -2 -8 -20 4 -24 -2 -12 -18
12 -14 12 -16 0 -8 -10 6 -12 4 -6 -5 5 -9 4 -11 -3 -6 -8 4 -10 2 -6 -7 3 -8
0 -18 -6 -22 -7 -4 -10 -1 -8 10 2 11 -4 19 -15 20 -9 2 -15 0 -13 -4 3 -4 0
-13 -5 -21 -8 -12 -10 -9 -6 11 2 15 -1 26 -8 26 -7 0 -10 -11 -8 -26 4 -20 2
-23 -6 -11 -5 8 -7 18 -4 24 4 5 1 6 -8 0 -21 -13 -40 -14 -33 -2 4 7 2 8 -5
4 -6 -4 -9 -11 -7 -15 3 -4 1 -13 -5 -21 -7 -12 -9 -9 -10 10 l-1 25 -8 -25
-8 -25 -2 25 -2 25 -8 -25 c-4 -14 -8 -19 -9 -12 -1 6 0 13 1 15 2 1 -5 13
-15 27 -9 13 -17 29 -17 35 1 5 7 -1 16 -15 14 -23 14 -23 9 -2 -9 30 3 28 15
-4 7 -17 14 -23 22 -17 7 4 27 8 43 8 24 0 30 5 29 21 0 11 6 21 13 21 9 0 11
-8 8 -21 -5 -17 -3 -16 9 4 15 24 16 24 13 3 -3 -30 15 -31 30 -2 7 13 13 20
13 14 0 -5 7 -1 15 9 11 14 15 16 15 5 1 -10 3 -9 11 4 14 23 16 22 37 -20z
m188 11 c8 11 15 14 15 8 3 -24 4 -28 27 -60 13 -18 28 -29 34 -26 6 4 8 2 4
-4 -3 -6 -2 -13 4 -17 5 -3 15 3 22 14 11 19 15 16 70 -38 31 -32 60 -55 64
-52 3 3 5 2 3 -4 -3 -16 17 -60 27 -58 5 1 8 -5 6 -14 -2 -10 1 -12 9 -7 7 4
10 3 6 -3 -4 -6 0 -16 8 -23 11 -9 12 -17 4 -31 -5 -10 -7 -19 -3 -19 8 0 -22
-48 -49 -78 -12 -12 -22 -32 -24 -43 -5 -31 -33 -80 -42 -74 -5 2 -14 -2 -21
-10 -7 -8 -16 -13 -20 -10 -4 2 -15 -4 -25 -15 -10 -11 -15 -20 -10 -20 4 0 2
-7 -5 -15 -7 -8 -16 -13 -20 -10 -4 3 -11 -2 -14 -11 -3 -9 -11 -12 -18 -8 -8
5 -9 2 -5 -10 4 -10 3 -15 -3 -11 -6 3 -10 0 -10 -7 0 -9 -3 -9 -10 2 -9 13
-10 13 -10 -1 0 -20 -44 -62 -55 -52 -4 5 -6 1 -3 -7 3 -8 -8 -31 -23 -51 -16
-20 -26 -38 -24 -41 3 -3 -2 -5 -10 -5 -9 0 -31 17 -50 38 -18 20 -36 34 -40
31 -3 -4 -3 2 1 12 5 14 4 17 -5 12 -8 -5 -14 0 -18 14 -4 16 -8 18 -14 8 -7
-10 -9 -11 -9 0 0 7 -4 11 -9 8 -4 -3 -16 3 -26 14 -10 11 -22 17 -26 14 -5
-3 -5 6 1 20 9 24 6 30 -11 28 -3 -1 -5 9 -5 21 1 15 -5 22 -19 22 -38 1 -51
20 -34 50 3 6 7 28 8 49 1 22 4 43 7 48 8 13 -6 29 -19 21 -36 -23 -56 -2 -54
57 1 54 -14 80 -43 75 -10 -2 -24 3 -30 10 -6 7 -20 12 -31 10 -11 -2 -17 0
-14 6 4 5 3 18 0 30 -7 20 -7 20 -21 2 -14 -17 -15 -17 -5 3 5 11 8 34 6 50
-3 16 -7 45 -9 64 -3 19 -8 49 -10 65 -4 22 -4 24 2 7 8 -28 24 -30 33 -5 7
17 8 17 9 -2 1 -19 2 -18 10 3 5 12 12 22 14 22 6 0 36 -55 37 -67 4 -38 60
-54 79 -23 11 18 37 21 44 5 7 -18 33 -13 51 11 11 14 14 15 9 3 -10 -30 14
-30 35 -1 16 23 18 32 8 42 -9 9 -9 11 0 6 6 -3 15 -1 19 6 5 8 10 4 16 -11 4
-12 12 -20 16 -17 9 5 12 -10 12 -51 0 -58 48 -7 53 56 2 24 6 28 30 26 15 -2
30 1 33 6 3 5 10 7 15 3 6 -3 13 4 16 17 l6 23 9 -25 c9 -23 10 -23 24 -5z
m-836 -404 c3 -1 8 -2 12 -1 14 2 39 -60 34 -87 -2 -15 -5 -30 -5 -34 -2 -13
-39 -3 -61 17 -20 18 -29 62 -10 50 5 -3 7 -13 4 -23 -5 -14 -4 -15 5 -2 9 13
11 13 12 0 0 -11 2 -12 6 -2 4 10 9 9 20 -5 13 -17 14 -17 5 2 -5 11 -8 33 -6
50 2 19 0 25 -5 16 -7 -11 -11 -10 -21 5 -10 17 -11 17 -6 1 3 -11 2 -16 -4
-12 -6 4 -17 -9 -25 -27 -9 -20 -14 -26 -15 -15 0 10 -4 16 -9 12 -13 -7 -22
10 -15 28 9 24 53 39 84 27z m-10 -40 c0 13 2 13 9 0 6 -8 7 -18 4 -23 -6 -10
-33 11 -33 27 0 6 5 4 10 -4 9 -13 10 -13 10 0z m192 -126 c9 -16 22 -36 27
-45 6 -9 6 -21 0 -30 -7 -12 -9 -12 -9 1 0 13 -1 13 -10 0 -6 -9 -10 -10 -10
-3 0 6 -8 10 -18 8 -13 -2 -18 4 -20 21 -1 13 2 24 6 24 12 0 9 43 -3 53 -6 5
-4 7 5 5 8 -3 22 -18 32 -34z m-182 -122 c0 -4 -5 -14 -11 -22 -9 -12 -10 -11
-5 5 6 20 6 20 -9 1 -11 -14 -15 -16 -15 -5 0 12 -2 12 -10 -1 -8 -13 -10 -13
-10 -1 0 11 -4 10 -16 -5 -8 -10 -12 -13 -8 -5 4 9 3 12 -4 7 -6 -4 -9 -14 -6
-24 5 -15 4 -15 -6 -2 -10 13 -11 12 -6 -5 5 -18 5 -18 -7 -3 -12 15 -14 15
-25 -3 -7 -11 -18 -17 -24 -13 -7 5 -8 3 -3 -6 5 -8 4 -11 -1 -7 -6 3 -8 -10
-6 -31 5 -42 -5 -41 -10 0 -2 15 -7 31 -12 35 -4 4 -7 4 -5 -2 1 -5 -1 -18 -6
-28 -6 -15 -10 -16 -17 -5 -7 10 -8 8 -4 -5 4 -12 2 -16 -6 -11 -7 5 -8 3 -3
-6 6 -9 4 -11 -5 -5 -9 6 -11 4 -5 -5 5 -9 4 -11 -3 -6 -8 4 -10 2 -6 -7 4
-11 -3 -14 -25 -13 -17 0 -31 2 -31 4 0 1 13 16 29 31 19 18 32 25 35 18 2 -7
5 -6 5 3 1 13 46 51 46 39 0 -2 11 6 25 19 22 21 34 26 53 23 4 0 7 3 7 8 0 8
32 24 52 26 3 0 9 2 12 5 8 8 46 10 46 2z m50 -1 c0 -5 -8 -8 -17 -7 -15 1
-17 -6 -15 -33 2 -21 0 -31 -7 -27 -5 4 -8 14 -5 24 5 14 4 14 -4 3 -14 -20
-42 -23 -35 -4 4 10 8 11 13 3 4 -7 12 0 20 19 11 28 50 45 50 22z m31 -5 c5
3 9 -2 9 -12 0 -14 -2 -15 -17 -3 -10 8 -14 9 -10 2 5 -8 1 -11 -10 -9 -15 3
-18 -2 -17 -30 1 -19 -1 -36 -5 -39 -5 -2 -7 16 -7 40 1 33 5 44 14 40 7 -2
16 3 19 12 4 11 8 13 11 5 2 -7 8 -10 13 -6z m39 -21 c5 3 16 -5 24 -17 9 -12
16 -19 16 -14 0 5 6 3 14 -3 8 -7 24 -14 36 -16 30 -6 31 -7 20 -41 l-10 -29
4 28 c2 15 1 25 -2 22 -3 -2 -12 1 -20 8 -13 10 -15 9 -8 -3 4 -8 0 -6 -10 5
l-17 20 7 -20 c5 -16 3 -15 -14 5 -11 14 -18 18 -14 9 3 -10 0 -20 -7 -25 -8
-5 -11 -2 -7 7 3 9 -3 26 -13 40 -11 13 -17 17 -13 8 3 -10 0 -20 -7 -25 -9
-5 -10 -2 -6 12 7 19 7 19 -8 0 -8 -10 -12 -23 -8 -29 4 -6 1 -7 -7 -2 -9 5
-11 4 -6 -3 4 -7 2 -20 -3 -29 -10 -17 -10 -16 -11 2 l-1 20 -9 -20 c-6 -15
-9 -16 -9 -4 -1 9 2 19 7 23 7 8 9 13 11 45 1 15 7 19 22 16 15 -3 23 2 27 18
5 18 7 19 10 4 2 -9 7 -15 12 -12z m-162 -24 c0 -9 1 -23 4 -31 3 -8 3 -11 0
-6 -2 4 -9 2 -14 -5 -7 -10 -8 -9 -4 6 3 11 1 27 -5 35 -8 12 -9 11 -5 -5 3
-11 1 -27 -4 -35 -8 -12 -10 -12 -11 5 l0 20 -9 -20 c-5 -11 -9 -14 -9 -7 -1
20 27 59 43 59 8 0 14 -7 14 -16z m-68 -36 c6 -17 15 -23 30 -20 13 3 20 -1
20 -12 0 -13 -2 -14 -17 -2 -15 12 -16 12 -8 -1 8 -13 6 -13 -7 -2 -15 12 -16
10 -14 -20 4 -33 2 -34 -33 -34 -20 0 -39 5 -43 10 -5 8 -8 8 -8 0 0 -6 -11
-11 -25 -11 -31 0 -31 2 -1 38 23 27 25 27 28 9 5 -32 23 -28 26 5 3 25 27 65
39 65 2 0 8 -11 13 -25z m125 -15 c14 -42 41 -47 60 -10 8 15 11 31 7 35 -4 5
-2 5 5 1 6 -3 14 -2 18 4 4 6 11 8 16 4 5 -3 7 -10 4 -15 -11 -16 5 -31 20
-19 8 7 15 7 19 1 3 -5 14 -8 24 -7 10 2 19 -5 22 -16 8 -31 23 -26 33 12 5
19 12 30 14 23 2 -7 11 -9 19 -6 9 3 14 -1 14 -13 0 -16 2 -17 10 -4 7 11 10
11 10 2 0 -7 5 -10 11 -6 12 7 69 -43 69 -60 0 -6 -5 -4 -10 4 -5 8 -10 10
-10 5 0 -7 -31 -11 -80 -10 -60 0 -79 3 -75 12 2 7 -1 12 -8 10 -7 -1 -11 6
-9 15 1 9 -2 19 -8 23 -5 3 -7 0 -4 -8 3 -8 0 -18 -7 -23 -9 -5 -10 -2 -6 9 3
9 1 19 -5 23 -7 5 -8 2 -3 -7 8 -12 6 -12 -9 0 -9 8 -16 10 -15 5 4 -25 -4
-36 -11 -14 -8 25 -8 25 -9 2 -1 -13 -5 -21 -9 -18 -5 3 -8 19 -7 35 1 17 -2
28 -7 25 -5 -4 -7 -13 -4 -21 3 -8 3 -20 -1 -26 -13 -22 -13 -39 1 -28 9 7 16
7 26 -2 10 -10 11 -9 5 2 -5 9 -4 12 3 7 25 -15 9 -22 -53 -22 -51 0 -64 3
-60 14 2 7 1 11 -4 8 -5 -3 -7 7 -6 22 1 15 -2 36 -7 47 -8 19 -8 18 -4 -2 2
-13 -3 -28 -12 -35 -13 -11 -14 -11 -7 1 5 9 4 12 -3 7 -8 -5 -8 -15 -2 -32
13 -33 14 -31 -15 -31 -14 0 -25 2 -24 6 2 21 26 71 34 73 6 2 9 10 8 20 -4
30 30 12 42 -22z m-18 -52 c1 -25 -1 -28 -9 -14 -5 9 -7 24 -4 32 8 21 11 17
13 -18z m-78 6 c1 11 4 17 7 13 3 -3 3 -15 -1 -28 -6 -17 -9 -19 -16 -8 -5 8
-8 21 -8 29 0 10 3 8 9 -5 8 -19 9 -19 9 -1z m262 -9 c7 0 14 -5 16 -12 3 -7
-5 -11 -19 -10 -27 1 -38 14 -31 34 5 12 7 12 14 1 5 -7 14 -13 20 -13z"/>
<path d="M8763 19478 c8 -53 60 -118 94 -118 25 0 12 32 -34 86 -52 59 -65 66
-60 32z"/>
<path d="M9583 18862 c-8 -5 -6 -13 7 -30 18 -22 40 -30 40 -13 0 18 -35 51
-47 43z"/>
<path d="M9660 18640 c0 -32 9 -37 28 -18 7 7 8 17 1 30 -15 27 -29 22 -29
-12z"/>
<path d="M8870 17997 c-3 -3 -23 -7 -46 -10 -59 -8 -91 -26 -104 -56 -10 -24
-67 -68 -133 -100 -49 -24 -58 -73 -16 -86 10 -4 19 -10 19 -14 0 -5 12 -20
27 -35 32 -32 76 -33 81 -1 5 33 24 75 33 75 5 0 22 -30 39 -67 32 -70 43 -83
73 -83 20 0 57 55 57 86 0 11 -9 39 -20 62 -11 22 -22 57 -26 77 -6 37 -2 41
46 49 14 3 25 5 25 6 0 1 9 3 20 5 23 5 45 32 39 49 -10 25 -98 58 -114 43z"/>
<path d="M18560 19044 c-23 -10 -60 -46 -60 -60 0 -6 15 -23 34 -37 18 -14 39
-40 46 -56 18 -44 51 -40 133 14 37 25 67 47 67 49 0 2 -24 22 -54 45 -42 32
-65 43 -102 46 -27 3 -56 2 -64 -1z"/>
<path d="M12747 16516 c-3 -8 -14 -13 -25 -11 -13 2 -18 -3 -18 -21 0 -18 3
-21 13 -12 7 6 13 7 13 3 0 -4 7 -2 15 5 8 7 15 9 15 5 0 -4 6 -2 13 4 8 6 16
9 18 7 2 -3 15 4 29 15 18 14 19 17 5 11 -30 -15 -37 -15 -46 0 -7 10 -9 10
-9 -2 0 -12 -2 -12 -9 -2 -7 11 -9 11 -14 -2z m27 -15 c-3 -3 -10 -7 -15 -7
-5 -1 -10 -2 -11 -4 -10 -7 -37 -6 -32 1 3 5 9 7 14 4 5 -3 11 -2 14 3 3 5 12
9 21 9 8 0 12 -3 9 -6z"/>
<path d="M12583 16467 c-6 -6 -12 -22 -15 -33 -6 -24 10 -27 34 -6 8 6 18 8
23 4 4 -4 3 3 -4 15 -15 29 -27 35 -38 20z m14 -34 c-16 -16 -17 -16 -17 3 0
26 11 37 24 24 7 -7 5 -16 -7 -27z"/>
<path d="M12395 16300 c-4 -6 -10 -8 -15 -5 -5 3 -11 1 -14 -4 -8 -13 22 -7
36 7 7 7 9 12 6 12 -4 0 -10 -5 -13 -10z"/>
<path d="M12394 16472 c4 -3 14 -7 22 -8 9 -1 13 0 10 4 -4 3 -14 7 -22 8 -9
1 -13 0 -10 -4z"/>
<path d="M12479 16465 c-1 -5 -3 -23 -4 -38 -2 -25 0 -27 13 -13 12 12 13 20
4 38 -6 13 -12 19 -13 13z m8 -37 c-3 -8 -6 -5 -6 6 -1 11 2 17 5 13 3 -3 4
-12 1 -19z"/>
<path d="M11271 16389 c-9 -19 -9 -21 1 -8 11 15 13 15 28 -3 15 -19 16 -19
17 4 0 12 -1 17 -4 10 -4 -10 -8 -9 -18 4 -11 16 -13 16 -24 -7z"/>
<path d="M11189 16254 c-5 -15 -8 -29 -5 -31 2 -2 8 10 14 26 13 38 5 41 -9 5z"/>
<path d="M11193 15819 c-2 -23 3 -25 10 -4 4 8 3 16 -1 19 -4 3 -9 -4 -9 -15z"/>
<path d="M12410 16405 c-7 -8 -15 -13 -19 -11 -4 3 -7 -4 -7 -15 0 -18 2 -18
12 -5 6 9 13 13 16 11 3 -3 11 1 17 9 7 8 8 17 3 20 -6 3 -15 -1 -22 -9z"/>
<path d="M11393 16354 c-4 -11 -8 -12 -13 -4 -5 8 -9 6 -14 -6 -4 -10 -4 -15
0 -11 10 10 35 -13 27 -27 -3 -6 -1 -6 7 1 16 15 23 46 9 37 -5 -3 -9 -1 -9 5
0 5 6 12 13 14 9 4 9 6 -1 6 -7 1 -15 -6 -19 -15z"/>
<path d="M11245 16281 c-3 -5 -2 -12 3 -15 5 -3 9 1 9 9 0 17 -3 19 -12 6z"/>
<path d="M11360 16183 c0 -6 9 -21 21 -34 l20 -24 -17 30 c-24 39 -24 40 -24
28z"/>
<path d="M12304 16348 l-19 -23 23 19 c21 18 27 26 19 26 -2 0 -12 -10 -23
-22z"/>
<path d="M12875 16239 c-4 -6 -5 -12 -2 -15 2 -3 7 2 10 11 7 17 1 20 -8 4z"/>
<path d="M12725 16229 c-4 -6 -5 -12 -2 -15 2 -3 7 2 10 11 7 17 1 20 -8 4z"/>
<path d="M12855 16170 c-3 -5 -2 -18 4 -27 7 -14 9 -12 8 10 -2 30 -3 31 -12
17z"/>
<path d="M12641 15907 c-13 -21 -12 -21 5 -5 10 10 16 20 13 22 -3 3 -11 -5
-18 -17z"/>
<path d="M12600 15865 c-7 -9 -11 -17 -9 -20 3 -2 10 5 17 15 14 24 10 26 -8
5z"/>
<path d="M12101 16313 c1 -4 1 -17 0 -28 -1 -17 -3 -18 -11 -5 -5 8 -10 11
-11 5 0 -5 -2 -18 -4 -27 -4 -24 10 -31 25 -13 7 8 10 15 6 15 -3 0 -1 11 4
25 6 15 6 26 -1 30 -5 4 -9 3 -8 -2z m-6 -52 c3 -5 2 -12 -3 -15 -5 -3 -9 1
-9 9 0 17 3 19 12 6z"/>
<path d="M12856 16301 c-4 -5 -2 -12 3 -15 5 -4 12 -2 15 3 4 5 2 12 -3 15 -5
4 -12 2 -15 -3z"/>
<path d="M11250 15861 c0 -6 4 -13 10 -16 6 -3 7 1 4 9 -7 18 -14 21 -14 7z"/>
<path d="M11250 15661 c0 -11 4 -22 9 -25 4 -3 6 6 3 19 -5 30 -12 33 -12 6z"/>
<path d="M11234 15286 c1 -8 5 -18 8 -22 4 -3 5 1 4 10 -1 8 -5 18 -8 22 -4 3
-5 -1 -4 -10z"/>
<path d="M11747 16223 c3 -7 6 -13 8 -13 2 0 5 6 8 13 3 8 -1 14 -8 14 -7 0
-11 -6 -8 -14z"/>
<path d="M11863 16145 c0 -8 4 -12 9 -9 5 3 6 10 3 15 -9 13 -12 11 -12 -6z"/>
<path d="M11886 16102 c-2 -4 2 -16 10 -27 8 -10 14 -14 14 -8 0 7 -5 15 -10
18 -6 4 -8 11 -5 16 4 5 4 9 1 9 -3 0 -7 -3 -10 -8z"/>
<path d="M12779 16196 c-1 -3 -2 -15 -3 -25 0 -11 -4 -22 -7 -25 -4 -4 -5 -20
-3 -37 2 -16 0 -27 -5 -24 -15 9 -25 -16 -24 -57 1 -21 -2 -36 -6 -34 -4 3 -7
-5 -6 -17 1 -12 -2 -32 -6 -44 -5 -13 -6 -23 -4 -23 7 0 29 53 26 64 -1 4 6
20 15 35 10 14 19 44 20 66 3 37 10 80 14 80 1 0 3 8 5 17 3 16 -13 38 -16 24z
m-14 -148 c-7 -36 -20 -39 -18 -5 2 41 1 39 12 32 6 -3 8 -15 6 -27z"/>
<path d="M12702 15873 c-9 -20 -9 -30 -1 -37 9 -8 10 -7 5 2 -4 7 -2 19 4 27
7 8 10 19 8 24 -1 6 -9 -2 -16 -16z"/>
<path d="M11293 16185 c0 -8 4 -12 9 -9 5 3 6 10 3 15 -9 13 -12 11 -12 -6z"/>
<path d="M11856 16077 c3 -10 9 -15 12 -12 3 3 0 11 -7 18 -10 9 -11 8 -5 -6z"/>
<path d="M11921 16000 c14 -31 19 -36 19 -24 0 6 -7 19 -16 30 -14 18 -14 18
-3 -6z"/>
<path d="M11970 15901 c0 -6 4 -13 10 -16 6 -3 7 1 4 9 -7 18 -14 21 -14 7z"/>
<path d="M11700 16111 c0 -6 4 -13 10 -16 6 -3 7 1 4 9 -7 18 -14 21 -14 7z"/>
<path d="M11307 16061 c-4 -17 -3 -21 5 -13 5 5 8 16 6 23 -3 8 -7 3 -11 -10z"/>
<path d="M11312 15680 c0 -14 2 -19 5 -12 2 6 2 18 0 25 -3 6 -5 1 -5 -13z"/>
<path d="M11274 15411 c4 -6 3 -18 -4 -26 -7 -9 -8 -15 0 -20 5 -3 10 -5 11
-3 7 32 7 48 -3 54 -7 4 -8 3 -4 -5z"/>
<path d="M11270 15296 c0 -2 8 -10 18 -17 15 -13 16 -12 3 4 -13 16 -21 21
-21 13z"/>
<path d="M11656 15963 c-6 -14 -5 -15 5 -6 7 7 10 15 7 18 -3 3 -9 -2 -12 -12z"/>
<path d="M12100 15758 c-10 -21 -10 -22 3 -5 11 14 16 15 20 5 4 -9 6 -9 6 -1
2 23 -18 23 -29 1z"/>
<path d="M12511 15904 c0 -11 3 -14 6 -6 3 7 2 16 -1 19 -3 4 -6 -2 -5 -13z"/>
<path d="M11409 15823 c-13 -16 -12 -17 4 -4 16 13 21 21 13 21 -2 0 -10 -8
-17 -17z"/>
<path d="M11371 15694 c0 -11 3 -14 6 -6 3 7 2 16 -1 19 -3 4 -6 -2 -5 -13z"/>
<path d="M11361 15564 c0 -11 3 -14 6 -6 3 7 2 16 -1 19 -3 4 -6 -2 -5 -13z"/>
<path d="M11331 15284 c0 -11 3 -14 6 -6 3 7 2 16 -1 19 -3 4 -6 -2 -5 -13z"/>
<path d="M12344 15905 c-3 -8 -4 -20 -2 -27 3 -7 7 -1 10 15 6 29 1 36 -8 12z"/>
<path d="M12443 15887 c-1 -11 -1 -18 0 -16 2 2 8 11 15 20 9 12 9 16 -1 16
-7 0 -14 -9 -14 -20z"/>
<path d="M12361 15822 c-7 -13 -6 -19 2 -19 7 0 13 9 13 19 0 10 -1 18 -3 18
-1 0 -7 -8 -12 -18z"/>
<path d="M12399 15798 c-4 -14 -7 -80 -3 -76 6 6 14 78 8 78 -2 0 -4 -1 -5 -2z"/>
<path d="M11670 15766 c0 -2 8 -10 18 -17 15 -13 16 -12 3 4 -13 16 -21 21
-21 13z"/>
<path d="M11425 15581 c-3 -5 -2 -12 3 -15 5 -3 9 1 9 9 0 17 -3 19 -12 6z"/>
<path d="M11426 15365 c-9 -26 -7 -32 5 -12 6 10 9 21 6 23 -2 3 -7 -2 -11
-11z"/>
<path d="M12637 15730 c-3 -11 -1 -23 4 -26 5 -3 7 -9 4 -14 -3 -5 -1 -11 4
-14 5 -3 7 10 5 30 -4 44 -10 52 -17 24z"/>
<path d="M11519 15753 c-13 -16 -12 -17 4 -4 16 13 21 21 13 21 -2 0 -10 -8
-17 -17z"/>
<path d="M11580 15741 c0 -6 4 -13 10 -16 6 -3 7 1 4 9 -7 18 -14 21 -14 7z"/>
<path d="M11459 15298 c-7 -24 -4 -40 9 -50 15 -11 15 -11 6 2 -6 8 -10 23 -9
33 3 13 -2 26 -6 15z"/>
<path d="M11496 15237 c3 -10 9 -15 12 -12 3 3 0 11 -7 18 -10 9 -11 8 -5 -6z"/>
<path d="M11520 15233 c0 -6 8 -17 18 -24 16 -13 16 -13 2 6 -8 11 -16 22 -17
24 -2 2 -3 0 -3 -6z"/>
<path d="M11649 15087 c29 -32 30 -32 27 -9 -2 9 -7 17 -12 17 -5 0 -16 4 -24
9 -8 5 -4 -3 9 -17z"/>
<path d="M11725 15699 c-4 -6 -5 -12 -2 -15 2 -3 7 2 10 11 7 17 1 20 -8 4z"/>
<path d="M11656 15662 c-3 -5 1 -9 9 -9 8 0 12 4 9 9 -3 4 -7 8 -9 8 -2 0 -6
-4 -9 -8z"/>
<path d="M11610 15216 c0 -2 8 -10 18 -17 15 -13 16 -12 3 4 -13 16 -21 21
-21 13z"/>
<path d="M11680 15116 c0 -2 8 -10 18 -17 15 -13 16 -12 3 4 -13 16 -21 21
-21 13z"/>
<path d="M11855 15709 c-4 -6 -5 -12 -2 -15 2 -3 7 2 10 11 7 17 1 20 -8 4z"/>
<path d="M11983 15665 c0 -8 4 -12 9 -9 5 3 6 10 3 15 -9 13 -12 11 -12 -6z"/>
<path d="M11552 15658 c7 -15 15 -23 17 -17 2 6 -4 18 -13 27 -15 15 -15 15
-4 -10z"/>
<path d="M12160 15645 c-10 -12 -10 -19 -2 -27 9 -9 9 -15 0 -25 -9 -11 -8
-13 1 -11 12 3 18 -11 23 -54 1 -9 6 -15 10 -12 4 3 3 16 -2 29 -5 14 -7 25
-4 25 4 0 2 6 -3 13 -5 6 -9 27 -8 45 2 37 2 37 -15 17z"/>
<path d="M12111 15516 c-1 -15 -4 -16 -15 -7 -10 8 -16 9 -21 1 -3 -6 -11 -7
-17 -4 -6 4 -8 2 -4 -4 3 -6 2 -13 -4 -17 -5 -3 -10 2 -11 12 -1 31 -21 -28
-21 -62 0 -16 -2 -24 -5 -17 -4 10 -9 7 -20 -8 -14 -20 -16 -20 -34 -4 -14 12
-16 21 -9 30 8 9 4 20 -15 40 -15 16 -24 24 -21 17 4 -6 2 -14 -3 -18 -6 -3
-7 -13 -4 -22 4 -10 2 -14 -4 -10 -6 4 -16 0 -23 -8 -10 -12 -16 -13 -27 -3
-11 9 -15 7 -20 -10 -3 -12 -9 -19 -14 -16 -5 3 -6 11 -3 17 4 7 4 9 -1 5 -4
-4 -14 -3 -22 3 -7 6 -13 8 -13 3 0 -5 -4 -3 -9 5 -6 10 -12 5 -22 -17 -7 -17
-17 -28 -21 -26 -5 3 -6 9 -3 14 6 10 -15 8 -31 -3 -10 -6 -24 22 -28 55 -1 4
-7 13 -13 20 -7 6 -13 19 -14 28 0 9 -4 6 -10 -8 -5 -13 -13 -20 -19 -17 -12
7 -31 -35 -22 -49 3 -5 6 -23 7 -40 1 -17 7 -44 15 -61 7 -16 13 -33 12 -37
-1 -3 6 -5 16 -3 9 1 20 -5 25 -14 5 -11 6 -9 3 6 -2 13 0 26 5 29 5 3 9 -7
10 -23 1 -26 2 -26 10 7 5 19 6 46 3 58 -3 16 -1 21 7 17 7 -5 9 -23 5 -53 -5
-35 -2 -50 11 -64 11 -13 17 -37 18 -70 0 -41 4 -52 17 -54 10 -1 21 2 24 7 3
6 11 6 20 -2 12 -10 11 -69 -2 -91 -2 -4 0 -9 6 -13 14 -8 13 -26 -1 -22 -15
3 -20 -31 -7 -40 6 -3 8 -1 4 5 -3 6 -2 13 4 17 5 3 10 -2 11 -12 0 -16 1 -16
8 1 5 14 10 16 15 8 4 -7 4 -12 0 -12 -4 0 0 -8 9 -17 8 -10 16 -21 16 -25 1
-5 2 -10 2 -13 1 -3 2 -13 3 -23 2 -28 25 -51 47 -47 13 3 23 -3 29 -18 8 -21
9 -21 10 -2 0 14 6 7 19 -20 10 -22 30 -50 44 -63 l25 -23 28 37 c16 20 29 42
29 48 0 6 3 11 6 11 16 0 48 40 54 66 4 16 11 32 17 35 6 4 8 -2 4 -17 -7 -24
-7 -24 8 1 10 15 15 19 16 10 0 -13 1 -13 10 0 5 8 15 15 22 15 7 0 14 6 14
13 1 6 2 19 3 28 0 8 5 13 10 9 5 -3 12 -1 16 5 4 6 10 8 15 5 5 -3 16 5 24
17 11 15 16 18 16 8 1 -35 37 54 39 98 1 7 5 11 10 7 11 -6 50 46 56 75 2 11
6 24 9 29 3 4 -4 17 -15 27 -11 10 -17 24 -14 31 2 8 0 11 -5 8 -6 -3 -14 5
-20 19 -5 14 -34 51 -65 81 -46 47 -58 55 -70 45 -8 -7 -13 -16 -10 -20 3 -5
1 -11 -5 -15 -5 -3 -10 -1 -10 5 0 6 -17 32 -37 56 -21 25 -37 51 -35 57 2 6
-5 3 -16 -7 -20 -17 -20 -17 -25 1 -4 17 -5 17 -6 -1z m4 -21 c6 -1 15 2 21 7
11 8 75 -62 87 -96 6 -15 10 -16 22 -6 8 7 13 16 10 20 -3 5 -1 11 4 15 11 6
121 -101 121 -119 0 -6 13 -27 29 -47 20 -24 27 -40 21 -49 -5 -8 -6 -18 -4
-22 3 -4 0 -8 -5 -8 -6 0 -10 -3 -9 -7 4 -14 -23 -54 -32 -48 -11 7 -18 -4
-25 -45 -9 -50 -25 -73 -20 -30 2 19 4 36 5 38 2 2 5 18 9 55 1 8 4 7 11 -3 5
-8 10 -10 10 -5 0 6 -4 17 -9 25 -6 8 -7 19 -3 24 3 6 9 0 13 -14 6 -23 7 -23
8 -3 1 12 6 25 11 28 7 4 9 -3 5 -22 l-5 -28 11 25 c6 14 13 35 14 48 3 20 1
21 -13 10 -13 -11 -15 -10 -10 10 4 12 2 20 -3 16 -5 -3 -6 3 -3 13 5 15 4 16
-5 3 -8 -12 -11 -8 -12 20 l-2 35 -7 -35 c-6 -26 -8 -29 -10 -12 -4 38 -5 40
-12 47 -4 4 -4 14 -1 23 4 13 1 12 -11 -3 -10 -11 -14 -14 -10 -6 5 10 3 12
-7 7 -8 -4 -5 0 5 8 11 9 15 16 10 16 -6 0 -16 -6 -23 -12 -11 -11 -12 -10 -6
1 6 10 4 12 -5 6 -8 -5 -11 -4 -7 1 3 6 -5 10 -17 10 -18 0 -22 -4 -18 -20 3
-12 1 -17 -4 -13 -5 5 -10 13 -10 18 -1 5 -2 12 -3 15 0 4 -7 1 -15 -5 -12
-10 -14 -7 -10 21 3 25 2 28 -5 13 -8 -19 -9 -18 -13 5 l-5 25 0 -25 c-1 -47
-6 -45 -13 5 l-7 50 -2 -50 c-2 -39 -5 -45 -10 -25 -4 14 -4 39 -1 56 5 20 3
31 -4 31 -7 0 -11 -13 -9 -31 3 -25 1 -27 -6 -11 -5 11 -7 23 -5 27 3 4 -1 10
-7 14 -7 4 -9 3 -6 -3 3 -5 0 -10 -8 -10 -8 0 -11 5 -8 10 3 6 1 7 -6 3 -6 -4
-9 -11 -6 -16 3 -5 1 -11 -5 -15 -5 -3 -10 2 -10 12 0 13 -4 10 -15 -11 -9
-16 -13 -42 -10 -60 5 -28 4 -29 -9 -13 -13 17 -14 17 -20 0 -6 -15 -8 -15
-17 -3 -8 11 -9 9 -4 -10 5 -19 4 -22 -4 -10 -9 12 -11 13 -11 1 0 -8 -3 -11
-6 -8 -10 10 24 57 39 54 6 -1 13 7 13 18 1 11 3 29 4 40 l1 20 9 -20 c5 -12
9 -14 9 -6 1 22 32 52 45 43 6 -3 16 -7 21 -7z m-459 -37 c1 -7 7 -26 13 -42
9 -22 15 -26 23 -18 9 9 16 8 30 -4 16 -16 18 -15 27 9 11 29 31 30 60 3 20
-18 21 -18 29 4 6 16 11 20 16 11 6 -9 13 -8 28 6 11 10 23 18 27 18 3 0 6 5
6 12 0 22 13 25 24 4 8 -14 8 -22 0 -26 -7 -5 -4 -14 8 -27 10 -11 18 -30 18
-42 0 -11 6 -20 13 -18 6 1 12 -5 12 -14 0 -14 -2 -15 -17 -3 -15 12 -16 12
-8 -1 8 -13 6 -13 -8 -2 -12 10 -14 19 -6 38 5 14 5 23 0 20 -9 -6 -34 18 -26
25 2 3 -6 5 -19 5 -18 0 -22 -4 -18 -20 4 -13 1 -17 -7 -12 -6 4 -9 11 -7 15
3 4 -1 8 -9 8 -7 0 -12 -8 -10 -18 4 -18 -10 -20 -34 -5 -9 6 -12 5 -7 -2 3
-6 1 -14 -5 -18 -9 -5 -10 0 -6 15 3 13 3 20 0 17 -4 -3 -14 1 -24 9 -15 15
-16 14 -14 -13 1 -18 -2 -29 -11 -29 -7 0 -10 5 -7 11 3 6 2 7 -2 3 -5 -4 -10
-13 -11 -20 -9 -56 -12 -90 -7 -79 4 10 9 8 20 -7 8 -12 12 -25 8 -30 -3 -5
-1 -13 5 -16 7 -5 8 -11 1 -19 -11 -13 -9 -41 4 -53 4 -4 5 -3 1 4 -4 8 0 11
13 8 15 -3 19 1 15 13 -2 9 2 4 10 -13 11 -21 15 -24 16 -12 0 10 4 16 8 13 7
-4 9 -71 2 -71 -1 0 -3 -11 -6 -25 -3 -19 -2 -22 6 -10 8 11 9 6 5 -20 -6 -33
-5 -34 9 -15 14 19 15 18 12 -17 -3 -24 0 -36 8 -35 6 1 10 -8 10 -20 -1 -13
3 -20 7 -17 5 3 7 9 4 14 -3 5 -1 11 5 15 6 4 9 -4 8 -19 -1 -13 -5 -23 -8
-21 -3 2 -6 -7 -6 -20 0 -13 4 -21 8 -19 5 3 6 9 3 14 -3 5 0 12 6 16 8 5 10
1 7 -13 -4 -16 -1 -20 16 -19 13 1 20 -4 18 -13 -3 -12 0 -12 12 -1 14 10 16
10 17 -6 0 -18 1 -18 10 1 7 16 8 14 5 -11 -2 -17 1 -38 6 -45 8 -11 9 -10 4
4 -4 11 -2 16 5 12 6 -4 8 -13 6 -19 -3 -7 -1 -19 4 -27 7 -12 9 -12 9 1 1 11
4 10 17 -5 12 -16 14 -16 10 -3 -3 10 -2 20 3 23 5 3 7 13 4 23 -5 15 -4 15 6
2 10 -13 11 -12 6 3 -3 10 -2 16 3 13 5 -4 7 4 3 16 -5 21 -4 22 11 9 9 -7 18
-11 18 -7 1 6 5 18 8 34 2 4 6 -2 11 -13 8 -17 9 -18 11 -2 1 9 2 23 3 30 1 6
-2 19 -8 27 -6 8 -6 12 -2 8 11 -9 38 11 31 22 -3 5 0 12 6 16 8 5 10 1 7 -13
-3 -12 0 -20 7 -20 7 0 10 8 7 20 -3 14 -1 18 7 13 6 -4 9 -11 6 -16 -3 -5 0
-12 6 -16 8 -4 9 -3 5 5 -5 7 -2 10 5 9 7 -2 14 7 15 20 1 12 3 24 4 27 1 3 3
9 4 14 0 5 5 13 10 18 5 5 7 -1 3 -15 -3 -12 -1 -20 4 -16 5 3 9 13 10 22 0
14 2 13 9 -3 7 -16 9 -17 9 -3 1 9 6 20 12 24 8 4 9 -1 5 -17 -6 -21 -5 -22 4
-6 9 14 8 22 -2 34 -11 14 -11 15 1 8 10 -6 12 -4 6 5 -5 8 -4 11 1 7 6 -3 10
5 10 18 0 14 -4 21 -10 18 -6 -3 -6 0 1 7 9 9 9 19 2 32 -6 11 -8 23 -4 26 3
3 9 -5 12 -18 6 -22 7 -22 13 -4 4 10 3 24 -2 31 -5 7 -5 14 1 17 6 4 8 14 5
24 -5 14 -3 14 10 -2 9 -11 16 -16 17 -10 0 5 2 17 4 27 2 11 -1 15 -8 10 -27
-17 -34 -10 -32 33 2 36 0 42 -11 33 -11 -9 -14 -7 -15 7 0 18 -1 18 -9 -1 -8
-19 -11 -18 -14 4 0 5 -5 13 -9 18 -5 4 -7 1 -5 -7 3 -16 -21 -21 -39 -7 -7 5
-10 14 -6 21 4 6 -1 5 -10 -3 -15 -12 -17 -11 -18 5 -1 17 -2 17 -6 1 -2 -9
-9 -15 -14 -11 -5 3 -6 11 -2 17 5 8 2 8 -9 -1 -21 -17 -39 5 -32 39 4 21 3
22 -5 4 -8 -18 -10 -18 -12 -2 -3 33 -4 35 -13 44 -5 5 -6 2 -1 -6 6 -10 4
-12 -5 -6 -9 6 -11 4 -5 -6 7 -12 6 -12 -7 -1 -14 11 -16 11 -14 0 1 -7 5 -18
8 -23 4 -6 3 -17 -2 -25 -4 -7 -6 -20 -2 -28 3 -9 1 -13 -4 -9 -11 6 -13 99
-3 95 4 -2 16 5 27 15 20 18 21 18 35 -15 8 -18 17 -41 20 -50 6 -17 22 -19
45 -4 7 4 12 4 11 -1 -4 -20 2 -24 18 -12 9 8 14 9 10 3 -4 -7 0 -17 9 -25 13
-10 16 -9 21 10 l6 22 27 -26 c16 -15 32 -28 36 -28 5 -1 10 -11 11 -22 5 -34
12 -47 23 -40 5 3 15 -6 20 -20 11 -28 5 -49 -10 -40 -10 6 -23 -12 -27 -40
-9 -58 -11 -70 -13 -70 -1 0 -3 -11 -4 -25 -3 -33 -25 -72 -36 -65 -5 3 -11 1
-15 -5 -4 -6 -11 -8 -16 -5 -10 7 -29 -35 -22 -48 2 -4 1 -7 -4 -6 -4 1 -11 0
-15 -1 -5 -1 -18 -3 -29 -4 -22 -1 -28 -8 -51 -61 -7 -16 -18 -30 -23 -30 -17
0 -36 -16 -33 -28 2 -7 -8 -27 -21 -45 -23 -32 -24 -33 -44 -15 -11 10 -29 37
-39 61 -11 23 -23 40 -28 37 -5 -3 -11 -1 -15 4 -3 5 -14 8 -25 6 -21 -4 -34
9 -36 38 -1 9 -2 19 -3 22 0 3 -1 8 -2 13 0 4 -8 15 -16 25 -9 9 -13 17 -8 17
4 0 2 7 -5 15 -7 8 -16 12 -21 9 -5 -3 -6 1 -3 9 3 8 1 18 -5 21 -6 4 -8 12
-6 19 14 39 13 73 -2 89 -8 10 -21 14 -27 11 -28 -18 -36 -11 -32 33 2 33 -2
51 -16 69 -14 18 -17 33 -12 64 4 27 2 46 -6 56 -18 22 -30 9 -25 -28 l5 -32
-10 30 c-6 17 -13 41 -16 55 -3 13 -8 27 -11 30 -3 3 -3 -5 0 -17 3 -13 1 -26
-5 -29 -7 -4 -9 10 -6 40 4 38 3 44 -9 35 -10 -9 -13 -8 -13 3 0 32 30 29 36
-4z m-29 -15 c5 3 8 -25 7 -61 -1 -38 2 -58 6 -47 6 16 8 17 12 5 3 -8 3 -1 1
15 -3 29 -3 29 9 7 12 -24 1 -58 -18 -56 -16 2 -41 59 -40 93 1 18 -2 35 -6
37 -3 2 -4 14 0 26 l5 22 9 -23 c4 -12 11 -20 15 -18z m473 -38 c0 -15 38 -65
48 -64 4 1 10 0 15 -1 4 -1 17 -3 28 -4 25 -1 59 -43 35 -43 -8 0 -12 7 -9 16
4 14 3 14 -6 1 -8 -12 -11 -12 -17 4 -5 14 -9 15 -15 4 -7 -10 -9 -10 -9 2 0
13 -2 13 -11 0 -9 -12 -10 -11 -5 5 6 20 6 20 -9 1 -15 -19 -15 -19 -16 5 l-1
24 -8 -25 c-7 -22 -8 -22 -11 -5 -1 11 -2 26 -2 32 1 7 -3 10 -8 7 -5 -3 -6
-17 -2 -32 6 -25 5 -26 -12 -12 -10 8 -16 10 -12 4 3 -6 0 -11 -8 -11 -8 0
-11 5 -8 10 3 6 1 7 -6 3 -6 -4 -9 -11 -6 -16 3 -5 0 -12 -6 -16 -9 -5 -10 0
-7 14 4 12 2 20 -2 17 -5 -3 -7 7 -4 22 3 19 2 24 -5 14 -5 -7 -7 -28 -5 -45
3 -25 2 -27 -5 -11 l-10 20 -1 -20 c-1 -11 -4 -15 -6 -8 -3 6 2 28 11 49 l16
38 23 -28 c15 -20 25 -25 30 -18 4 7 5 16 2 20 -2 4 -1 14 4 22 5 8 5 19 0 25
-7 8 -5 12 5 12 8 0 15 -6 15 -12z m-163 -47 c-3 -9 4 -25 14 -34 10 -9 19
-13 20 -8 0 5 4 -1 10 -14 5 -13 13 -20 19 -17 13 8 13 -5 0 -25 -8 -12 -10
-12 -11 5 l0 20 -9 -20 c-9 -21 -11 -18 -14 18 -1 12 -8 21 -15 19 -8 -1 -10
2 -5 10 5 8 1 7 -11 -2 -17 -14 -18 -13 -13 8 4 14 2 20 -4 15 -7 -4 -8 -1 -2
8 12 20 14 38 4 44 -5 3 -7 -3 -5 -13 2 -11 -3 -19 -10 -19 -8 0 -11 5 -8 11
4 6 2 7 -3 3 -5 -5 -10 -13 -10 -18 -3 -22 -6 -23 -14 -4 -8 18 -9 18 -9 2 -1
-10 -6 -15 -11 -12 -6 4 -7 11 -4 17 4 7 2 8 -5 4 -6 -4 -9 -11 -7 -15 6 -9
-34 -8 -50 1 -6 4 -11 2 -12 -5 0 -7 -3 -24 -5 -39 -3 -17 0 -25 6 -21 6 3 8
2 5 -3 -3 -5 3 -25 13 -44 13 -24 19 -29 19 -16 0 17 14 15 16 -2 0 -4 4 -15
9 -25 5 -13 10 -15 15 -7 5 8 9 7 13 -5 4 -9 3 -14 -1 -11 -4 2 -8 -9 -9 -26
0 -22 2 -27 9 -17 6 10 8 2 5 -22 -3 -20 0 -43 5 -50 7 -10 8 -9 3 6 -3 11 -2
16 2 11 10 -10 12 -56 2 -50 -4 2 -5 -6 -1 -18 5 -21 6 -21 13 -2 7 19 8 19 9
-1 1 -19 2 -18 10 3 5 12 12 22 15 22 4 0 3 -10 0 -22 -5 -18 -4 -20 4 -8 7 9
11 10 11 3 0 -6 -4 -14 -9 -17 -8 -5 -8 -34 -1 -43 2 -2 3 -7 4 -12 0 -5 5
-13 10 -18 5 -4 7 -3 3 3 -3 6 0 11 8 11 8 0 12 -4 9 -8 -2 -4 1 -11 7 -15 7
-4 9 -3 5 4 -3 6 -2 13 4 17 5 3 10 -2 11 -12 0 -14 2 -14 9 5 13 32 17 27 16
-20 -1 -31 3 -42 15 -43 13 -2 16 4 14 29 -2 17 1 38 7 46 7 12 8 10 5 -7 -3
-13 0 -26 5 -30 7 -4 8 -1 3 7 -5 8 -4 11 3 7 6 -5 8 1 4 15 -3 14 -2 19 7 14
6 -4 9 -11 6 -16 -3 -5 -1 -11 4 -15 6 -3 8 4 6 15 -2 12 0 18 6 15 5 -4 9 -3
8 2 -1 4 -1 16 0 27 1 14 4 16 14 7 10 -8 14 -7 14 4 0 8 -3 12 -7 10 -3 -2
-7 8 -8 21 -1 15 2 23 8 19 6 -4 8 -10 5 -15 -3 -5 0 -12 6 -16 8 -4 9 -3 5 5
-5 7 -2 10 5 9 7 -2 13 2 14 9 0 6 4 15 9 20 5 4 7 -1 4 -13 -3 -12 0 -21 7
-21 7 0 10 8 7 21 -5 18 -3 19 10 9 12 -10 15 -10 15 2 0 8 -3 12 -7 10 -4 -2
-7 2 -7 10 0 7 8 12 19 10 10 -2 16 0 13 5 -3 5 -1 11 5 15 5 3 10 -2 11 -12
0 -14 3 -12 10 6 13 32 18 122 7 143 -5 10 -4 19 2 23 5 3 10 -3 10 -14 0 -11
3 -22 8 -24 4 -3 7 17 7 43 0 26 -3 46 -7 44 -4 -3 -11 4 -17 13 -6 11 -11 13
-12 6 -1 -7 -3 -17 -4 -23 -1 -5 -3 -13 -4 -16 0 -4 -9 0 -18 7 -10 8 -14 9
-10 2 4 -6 3 -14 -3 -18 -5 -3 -10 2 -11 12 0 16 -1 16 -10 -2 -9 -19 -9 -18
-5 3 2 12 0 20 -5 16 -5 -3 -10 -13 -10 -22 -1 -9 -5 -3 -9 13 l-8 30 -2 -30
c-1 -26 -3 -27 -9 -10 -5 11 -6 25 -3 30 3 6 -3 3 -13 -5 -15 -12 -17 -12 -10
-1 5 9 4 12 -3 8 -5 -4 -8 -17 -5 -30 4 -19 3 -20 -7 -4 -6 9 -9 21 -6 25 3 5
-1 9 -9 9 -8 0 -12 -4 -9 -9 3 -4 0 -16 -6 -25 -10 -16 -11 -15 -7 4 3 13 0
26 -5 30 -7 4 -8 1 -3 -7 5 -8 4 -11 -3 -7 -6 5 -8 -1 -5 -15 4 -21 3 -21 -7
-5 -19 30 2 43 73 42 35 0 71 -5 78 -11 21 -15 44 -11 41 8 -3 19 30 18 36 -2
4 -10 6 -9 13 1 7 12 9 11 9 -1 0 -13 2 -13 10 0 6 10 8 4 6 -20 -2 -19 1 -43
5 -52 6 -10 5 -19 -1 -23 -8 -5 -7 -12 2 -23 11 -15 11 -15 -4 -4 -21 17 -33
0 -19 -27 8 -14 7 -22 -4 -31 -8 -7 -14 -20 -14 -29 1 -13 2 -13 6 2 2 9 9 14
14 11 6 -4 4 -12 -5 -22 -8 -10 -15 -21 -15 -27 -1 -5 -9 -10 -18 -10 -24 0
-45 -14 -38 -25 3 -5 1 -11 -4 -15 -5 -3 -8 -15 -6 -26 4 -18 2 -19 -11 -8
-29 24 -60 16 -63 -16 -1 -5 -5 -11 -11 -11 -20 -3 -21 -4 -13 -16 9 -16 14
-42 6 -34 -10 10 -33 -15 -26 -28 4 -6 -1 -5 -10 3 -15 12 -18 10 -29 -15 -6
-16 -12 -35 -13 -43 0 -8 -8 -15 -18 -17 -9 -1 -14 2 -11 7 3 6 0 17 -7 26 -7
8 -13 25 -14 37 0 15 -7 21 -22 22 -13 1 -25 2 -28 3 -3 0 -8 1 -12 2 -10 0
-25 38 -27 64 -1 11 -6 20 -13 20 -18 0 -28 15 -28 43 0 17 -5 26 -13 24 -8
-1 -11 2 -7 8 4 6 2 17 -5 25 -6 7 -7 16 -3 18 12 8 9 58 -5 82 -8 14 -12 16
-12 5 0 -11 -4 -10 -12 4 -10 18 -12 18 -23 2 -9 -11 -15 -14 -20 -6 -4 6 -2
17 5 25 8 9 8 15 0 20 -6 3 -8 11 -5 16 4 5 -2 21 -13 37 -21 30 -16 77 8 77
9 0 15 9 14 23 -2 29 4 28 16 -4 7 -17 14 -23 22 -17 7 4 22 8 33 8 12 1 19 7
17 15 -3 11 -1 11 13 0 14 -11 17 -10 22 9 5 21 6 21 25 4 11 -9 17 -25 15
-35z m-30 -15 c-10 -18 12 -52 32 -48 13 2 18 -2 16 -13 -1 -9 4 -26 12 -38
10 -16 11 -27 3 -45 l-10 -24 1 25 c2 49 0 57 -11 40 -8 -11 -9 -9 -6 11 4 24
1 26 -23 24 -22 -2 -28 2 -27 16 1 10 -3 19 -9 19 -5 0 -10 -4 -10 -9 0 -5 -4
-13 -9 -18 -5 -4 -7 1 -4 13 3 12 0 21 -7 21 -7 0 -10 -9 -8 -21 4 -18 2 -17
-11 4 -10 16 -15 19 -16 10 0 -12 -2 -12 -9 -2 -13 22 -21 -11 -11 -45 7 -25
8 -26 9 -5 1 13 5 21 11 17 5 -3 7 -13 4 -23 -5 -14 -4 -15 5 -2 12 16 14 10
14 -33 0 -13 3 -15 10 -8 8 8 15 3 24 -17 l12 -27 -6 30 c-3 17 -2 26 3 22 13
-12 14 -40 2 -54 -7 -9 -7 -22 1 -44 6 -17 8 -36 5 -43 -3 -6 1 -3 9 6 13 16
14 14 13 -25 -1 -24 -5 -40 -11 -37 -5 3 -9 12 -8 22 1 9 -4 21 -11 27 -8 7
-12 21 -9 31 3 11 0 26 -6 34 -8 10 -9 16 -1 21 12 7 -5 46 -19 42 -5 -1 -10
3 -11 8 -3 17 -22 35 -30 30 -10 -6 -20 7 -25 32 -2 10 -4 23 -5 28 -6 26 3
31 50 30 31 -1 55 4 61 12 12 14 23 18 16 6z m-55 -69 c7 0 19 4 26 10 9 7 12
5 10 -5 -2 -8 3 -13 10 -11 6 1 12 -8 13 -20 1 -22 1 -22 9 2 8 24 11 22 14
-10 0 -8 6 -14 12 -13 6 1 9 -8 7 -21 -3 -13 0 -27 6 -30 14 -9 32 37 25 61
-3 10 2 7 10 -7 8 -14 15 -32 15 -40 0 -9 -3 -8 -8 5 -7 17 -9 16 -15 -13 -7
-29 -10 -31 -24 -20 -11 9 -13 9 -9 1 5 -8 1 -11 -13 -8 -14 3 -18 0 -13 -8 4
-8 1 -8 -9 1 -15 12 -16 9 -13 -20 l4 -33 -10 28 c-8 19 -8 32 -1 40 22 25 2
68 -28 62 -12 -2 -18 0 -15 4 2 5 -4 20 -15 34 -11 14 -20 29 -20 34 0 4 5 1
10 -7 5 -8 15 -15 22 -16z m212 -30 c10 -1 20 4 23 12 4 12 8 12 19 -3 13 -17
14 -16 20 6 7 24 7 24 15 3 5 -12 4 -32 -1 -44 -9 -23 -9 -23 -10 2 l-2 25 -8
-25 c-7 -22 -15 -11 -11 14 1 5 -4 4 -12 -2 -10 -9 -17 -9 -27 1 -7 6 -10 7
-7 2 3 -6 2 -17 -4 -25 -7 -12 -9 -9 -9 9 0 30 -5 25 -14 -14 -5 -21 -4 -26 3
-15 8 12 10 11 8 -7 0 -12 -5 -19 -11 -16 -5 3 -6 2 -3 -4 3 -5 0 -10 -8 -10
-8 0 -11 5 -8 10 3 6 1 7 -6 3 -6 -4 -9 -11 -6 -16 3 -5 1 -11 -5 -15 -6 -4
-8 -10 -5 -15 3 -5 0 -12 -6 -16 -8 -5 -10 -1 -7 13 3 12 0 20 -7 20 -7 0 -10
-9 -8 -21 4 -18 2 -17 -11 4 -8 14 -15 22 -16 18 0 -3 -3 -15 -6 -25 -5 -15
-4 -15 5 -3 7 11 9 0 6 -40 -2 -37 0 -48 5 -35 8 17 9 15 8 -10 0 -16 1 -37 3
-45 2 -8 -1 -14 -7 -13 -6 1 -11 -5 -11 -12 0 -11 4 -12 13 -4 9 7 14 6 17 -3
2 -7 3 -5 2 4 -2 10 1 21 6 24 5 3 10 -7 10 -23 l1 -28 7 30 c3 17 9 26 13 20
12 -20 -10 -52 -34 -51 -42 3 -55 21 -35 52 4 7 1 27 -7 45 -7 19 -12 42 -10
53 1 10 -2 29 -7 43 -5 15 -5 22 0 18 5 -3 12 -1 16 4 3 5 15 8 26 6 15 -3 23
2 26 15 3 11 9 17 14 14 15 -9 21 23 10 45 -8 14 -8 27 1 46 l12 26 12 -22 c6
-12 19 -24 28 -25z m219 15 c3 -11 3 -18 0 -15 -12 12 -33 -16 -25 -33 7 -14
8 -34 2 -111 l-2 -25 -7 25 c-4 14 -7 47 -6 73 1 33 -1 44 -7 35 -7 -10 -8 -9
-4 4 3 10 1 20 -5 23 -5 4 -9 3 -8 -2 4 -24 -4 -34 -11 -13 l-8 25 -2 -25 -2
-25 -8 25 -8 25 -2 -25 c-1 -23 -2 -24 -11 -5 -6 15 -7 11 -3 -15 6 -33 6 -34
-12 -20 -16 13 -17 13 -9 0 8 -13 7 -13 -9 -1 -9 8 -16 10 -15 5 1 -5 0 -18
-1 -29 -2 -15 -4 -12 -11 10 l-8 30 1 -30 c0 -54 -4 -61 -12 -15 -8 50 -3 80
11 59 14 -24 40 -18 50 10 8 22 16 27 37 26 15 -1 33 2 40 8 6 5 12 6 12 2 0
-4 7 -2 15 5 8 7 12 17 8 23 -3 5 -1 7 4 4 6 -4 13 -16 16 -28z m-205 -90 c1
-28 5 -56 8 -61 8 -12 43 29 44 52 1 11 4 9 9 -4 9 -24 1 -83 -9 -65 -5 7 -6
19 -3 28 4 13 3 13 -5 2 -6 -8 -9 -19 -8 -25 2 -6 1 -7 -2 -3 -2 4 -11 0 -19
-10 -14 -17 -14 -17 -9 0 4 12 2 16 -6 11 -7 -5 -8 -3 -3 6 5 8 4 11 -2 7 -5
-3 -8 6 -5 22 2 16 -1 32 -7 35 -7 5 -7 14 1 31 6 14 12 25 12 25 1 0 3 -23 4
-51z m153 17 c11 -92 4 -123 -26 -125 -5 -1 -10 -7 -10 -13 0 -7 -4 -13 -10
-13 -19 0 -35 -16 -28 -28 3 -7 -3 -4 -15 7 -18 16 -22 16 -27 4 -3 -8 -5 -19
-4 -24 1 -5 -3 -21 -9 -36 -8 -19 -17 -26 -32 -23 -23 5 -41 -22 -35 -54 2
-11 0 -23 -4 -25 -4 -3 -7 22 -6 54 0 33 -5 67 -12 77 -9 12 -13 13 -13 3 0
-7 -2 -11 -5 -8 -3 3 -2 13 1 23 6 15 9 15 21 -6 14 -23 14 -24 8 -1 -4 12 -4
22 0 22 12 0 23 -45 13 -57 -5 -7 -8 -18 -5 -25 3 -8 6 -5 6 6 1 16 3 17 18 5
15 -12 16 -12 8 1 -7 13 -6 13 7 2 14 -11 16 -10 13 5 -1 10 0 23 4 28 3 6 6
17 6 25 0 8 4 20 8 27 4 6 2 15 -4 19 -7 4 -9 3 -6 -3 3 -5 0 -10 -8 -10 -8 0
-11 5 -8 10 3 6 1 7 -6 3 -6 -4 -9 -11 -6 -16 3 -5 0 -12 -6 -15 -7 -5 -9 3
-6 23 3 16 1 36 -4 43 -7 12 -9 12 -9 0 0 -8 -3 -11 -6 -8 -4 4 -1 13 6 22 7
8 10 21 7 30 -4 8 -1 17 4 21 7 4 10 -4 8 -22 -4 -37 18 -79 34 -66 7 5 20 8
29 7 24 -4 29 7 30 58 0 33 2 37 9 20 4 -12 4 -35 -1 -52 -4 -16 -5 -33 -2
-37 4 -4 2 -4 -5 -1 -12 8 -12 -17 1 -30 4 -4 6 -1 4 7 -1 8 4 14 12 15 11 0
15 12 14 42 0 23 3 40 8 37 4 -3 8 -16 8 -29 0 -13 3 -26 8 -28 4 -3 7 18 6
46 0 29 -5 52 -10 53 -5 0 -8 -9 -7 -20 3 -20 2 -21 -6 -1 -9 19 -10 19 -10 1
-1 -11 -3 -17 -6 -14 -4 3 -3 17 0 30 4 17 13 24 31 24 13 0 25 -5 25 -10z
m-199 -77 c-13 -20 -7 -44 8 -34 5 3 7 -6 4 -20 -7 -37 4 -50 25 -30 17 14 18
13 15 -12 -1 -16 -3 -30 -4 -33 -1 -3 -2 -8 -2 -11 1 -3 -5 -6 -12 -6 -7 0
-13 6 -13 13 0 11 -8 32 -41 104 -11 24 -11 24 -5 -5 3 -16 2 -26 -3 -22 -13
12 -14 40 -2 54 6 7 7 13 3 13 -4 0 -2 7 5 15 20 24 39 1 22 -26z m148 -20 c0
-16 -4 -28 -9 -25 -8 5 -3 56 5 56 2 0 4 -14 4 -31z m-210 0 c0 17 10 9 14
-11 2 -7 6 -21 10 -30 4 -9 1 -29 -8 -45 -8 -15 -16 -23 -16 -18 -1 6 -3 24
-4 40 -1 17 -5 41 -10 55 -5 19 -5 21 3 10 9 -12 11 -13 11 -1z m47 -61 c-3
-8 -6 -5 -6 6 -1 11 2 17 5 13 3 -3 4 -12 1 -19z"/>
<path d="M12263 15423 c4 -3 2 -12 -4 -19 -7 -9 -6 -12 8 -9 10 1 25 -2 33 -8
8 -6 4 1 -9 16 -14 15 -27 27 -29 27 -3 0 -2 -3 1 -7z"/>
<path d="M11919 15433 c-13 -16 -12 -17 4 -4 16 13 21 21 13 21 -2 0 -10 -8
-17 -17z"/>
<path d="M11700 15396 c0 -2 8 -10 18 -17 15 -13 16 -12 3 4 -13 16 -21 21
-21 13z"/>
<path d="M12059 14793 c-13 -16 -12 -17 4 -4 9 7 17 15 17 17 0 8 -8 3 -21
-13z"/>
<path d="M11612 15391 c1 -18 5 -34 9 -37 8 -4 0 58 -7 65 -3 3 -3 -10 -2 -28z"/>
<path d="M12086 15373 c-6 -14 -5 -15 5 -6 7 7 10 15 7 18 -3 3 -9 -2 -12 -12z"/>
<path d="M11748 15325 c-3 -14 -2 -27 1 -30 4 -2 8 10 9 26 3 36 -4 38 -10 4z"/>
<path d="M12303 15221 c0 -11 5 -18 9 -15 4 3 5 11 1 19 -7 21 -12 19 -10 -4z"/>
<path d="M12283 15141 c0 -11 5 -18 9 -15 4 3 5 11 1 19 -7 21 -12 19 -10 -4z"/>
<path d="M11845 15091 c-3 -5 -2 -12 3 -15 5 -3 9 1 9 9 0 17 -3 19 -12 6z"/>
<path d="M12000 14847 c0 -2 6 -10 14 -16 11 -9 16 -9 22 1 4 7 4 10 -1 6 -4
-4 -14 -3 -22 3 -7 6 -13 9 -13 6z"/>
<path d="M11863 15249 c7 -11 14 -14 16 -8 2 6 10 0 19 -13 9 -13 16 -27 14
-31 -1 -5 2 -6 8 -2 14 8 13 -8 -1 -22 -9 -9 -7 -11 7 -8 11 1 17 9 15 16 -2
8 -4 21 -6 29 -1 8 -7 15 -13 15 -6 0 -17 9 -25 19 -8 11 -21 20 -30 22 -13 2
-14 -1 -4 -17z"/>
<path d="M12018 15258 c-3 -7 -2 -22 2 -32 6 -19 7 -19 12 1 7 25 -6 53 -14
31z"/>
<path d="M12255 15250 c-4 -6 -11 -7 -17 -4 -7 4 -8 2 -4 -5 6 -9 11 -9 22 0
14 11 18 19 10 19 -3 0 -8 -5 -11 -10z"/>
<path d="M12221 15154 c0 -11 3 -14 6 -6 3 7 2 16 -1 19 -3 4 -6 -2 -5 -13z"/>
<path d="M12222 15100 c0 -14 2 -19 5 -12 2 6 2 18 0 25 -3 6 -5 1 -5 -13z"/>
<path d="M12113 15044 c-9 -20 -9 -23 1 -15 9 7 17 7 26 -2 12 -10 12 -9 3 3
-6 8 -12 20 -14 27 -2 7 -9 1 -16 -13z"/>
<path d="M12019 15138 c-5 -18 -6 -38 -1 -34 7 8 12 36 6 36 -2 0 -4 -1 -5 -2z"/>
<path d="M12069 15018 c-5 -18 -6 -38 -1 -34 7 8 12 36 6 36 -2 0 -4 -1 -5 -2z"/>
<path d="M11977 15039 c4 -13 8 -18 11 -10 2 7 -1 18 -6 23 -8 8 -9 4 -5 -13z"/>
<path d="M11270 15120 c0 -7 -3 -10 -7 -7 -8 9 -33 -12 -33 -27 0 -6 5 -4 10
4 8 13 10 13 10 0 0 -9 6 -7 16 8 9 13 13 26 10 29 -3 4 -6 0 -6 -7z"/>
<path d="M11336 15075 c8 -37 14 -45 14 -19 0 10 -5 26 -10 34 -8 11 -9 7 -4
-15z"/>
<path d="M11300 15025 c11 -14 34 -14 47 -1 4 4 4 7 -2 6 -5 -1 -12 -1 -15 0
-3 1 -13 3 -23 5 -14 3 -16 0 -7 -10z"/>
<path d="M11473 14963 c3 -13 1 -26 -4 -29 -18 -11 -3 -28 24 -29 28 -2 29 -5
-11 59 l-14 21 5 -22z m27 -46 c0 -7 -4 -6 -10 3 -8 12 -10 12 -10 1 0 -8 -3
-12 -6 -8 -9 9 6 28 17 22 5 -4 9 -12 9 -18z"/>
<path d="M11037 14692 c-15 -16 -15 -19 -2 -19 8 0 13 3 10 5 -3 3 0 11 6 19
17 20 5 16 -14 -5z"/>
<path d="M11436 14797 c3 -10 9 -15 12 -12 3 3 0 11 -7 18 -10 9 -11 8 -5 -6z"/>
<path d="M11370 14780 c-6 -11 -8 -20 -6 -20 3 0 10 9 16 20 6 11 8 20 6 20
-3 0 -10 -9 -16 -20z"/>
<path d="M11173 14758 c-4 -7 -9 -24 -11 -38 -2 -13 -7 -29 -12 -36 -6 -7 -5
-11 3 -11 7 0 14 12 15 25 3 39 12 39 13 1 l2 -34 6 35 c4 19 3 40 -1 46 -4 6
-5 14 -1 17 3 4 4 7 0 7 -3 0 -9 -6 -14 -12z"/>
<path d="M11091 14686 c-10 -11 -9 -14 1 -12 14 2 23 15 15 22 -2 2 -10 -2
-16 -10z"/>
<path d="M11563 14728 c3 -9 -1 -22 -9 -28 -8 -7 -14 -18 -14 -24 0 -6 5 -4
10 4 8 13 10 13 10 1 0 -11 4 -10 16 5 11 13 14 14 11 3 -4 -12 4 -15 42 -13
25 1 48 2 50 3 2 0 -4 10 -14 21 -11 13 -27 18 -41 16 -15 -3 -27 2 -34 12 -8
14 -9 14 -10 2 0 -13 -2 -13 -11 0 -9 13 -10 13 -6 -2z m50 -21 c4 3 7 0 7 -8
0 -11 2 -11 10 1 8 13 11 13 25 -1 15 -14 13 -16 -17 -15 -18 1 -37 7 -41 14
-7 11 -12 11 -25 0 -15 -12 -16 -11 -3 5 9 12 17 14 26 7 6 -5 15 -7 18 -3z"/>
<path d="M11382 14710 c-7 -11 -12 -25 -12 -32 0 -7 7 0 15 16 18 33 15 45 -3
16z"/>
<path d="M11258 14692 c-3 -11 0 -19 7 -19 7 0 10 8 7 19 -2 10 -6 18 -7 18
-1 0 -5 -8 -7 -18z"/>
<path d="M11327 14699 c7 -9 11 -18 8 -21 -3 -2 1 -5 8 -5 8 0 14 6 14 14 0 7
-3 11 -5 8 -3 -3 -12 1 -21 8 -14 10 -14 10 -4 -4z"/>
<path d="M23110 17805 l0 -265 798 2 797 3 3 263 2 262 -800 0 -800 0 0 -265z"/>
<path d="M36300 17275 l0 -795 800 0 800 0 0 795 0 795 -800 0 -800 0 0 -795z"/>
<path d="M39232 17808 l3 -263 798 -3 797 -2 0 265 0 265 -800 0 -800 0 2
-262z"/>
<path d="M45100 17275 l0 -795 795 0 795 0 0 795 0 795 -795 0 -795 0 0 -795z"/>
<path d="M52422 17808 l3 -263 798 -3 797 -2 0 265 0 265 -800 0 -800 0 2
-262z"/>
<path d="M55358 18060 c-1 -5 -2 -125 0 -265 l3 -255 794 0 795 0 0 265 0 265
-794 0 c-517 0 -795 -3 -798 -10z"/>
<path d="M58290 17275 l0 -795 795 0 795 0 0 795 0 795 -795 0 -795 0 0 -795z"/>
</g>
</svg>
